<?xml version="1.0" encoding="UTF-8" standalone="no"?>
<svg
   xmlns:dc="http://purl.org/dc/elements/1.1/"
   xmlns:cc="http://creativecommons.org/ns#"
   xmlns:rdf="http://www.w3.org/1999/02/22-rdf-syntax-ns#"
   xmlns:svg="http://www.w3.org/2000/svg"
   xmlns="http://www.w3.org/2000/svg"
   xmlns:sodipodi="http://sodipodi.sourceforge.net/DTD/sodipodi-0.dtd"
   xmlns:inkscape="http://www.inkscape.org/namespaces/inkscape"
   version="1.1"
   width="128"
   height="128"
   viewBox="0 0 128 128"
   id="svg4"
   sodipodi:docname="access-3.svg"
   inkscape:version="0.92.5 (2060ec1f9f, 2020-04-08)">
  <metadata
     id="metadata10">
    <rdf:RDF>
      <cc:Work
         rdf:about="">
        <dc:format>image/svg+xml</dc:format>
        <dc:type
           rdf:resource="http://purl.org/dc/dcmitype/StillImage" />
        <dc:title />
      </cc:Work>
    </rdf:RDF>
  </metadata>
  <defs
     id="defs8" />
  <sodipodi:namedview
     pagecolor="#ffffff"
     bordercolor="#666666"
     borderopacity="1"
     objecttolerance="10"
     gridtolerance="10"
     guidetolerance="10"
     inkscape:pageopacity="0"
     inkscape:pageshadow="2"
     inkscape:window-width="1848"
     inkscape:window-height="1016"
     id="namedview6"
     showgrid="false"
     inkscape:zoom="5.9682424"
     inkscape:cx="75.705737"
     inkscape:cy="59.434431"
     inkscape:window-x="72"
     inkscape:window-y="27"
     inkscape:window-maximized="1"
     inkscape:current-layer="svg4" />
  <g
     id="g884"
     transform="matrix(0.56304909,0,0,0.56304664,3.1847509,-5.2547401)">
    <path
       d="M 56,24 A 24,24 0 0 1 80,48 24,24 0 0 1 56,72 24,24 0 0 1 32,48 24,24 0 0 1 56,24 m 0,60 c 26.52,0 48,10.739999 48,24 v 12 H 8 V 108 C 8,94.739999 29.48,84 56,84 Z"
       id="path880"
       inkscape:connector-curvature="0"
       style="stroke:#ffffff;stroke-width:6;stroke-opacity:1" />
    <path
       style="stroke-width:6"
       inkscape:connector-curvature="0"
       id="path2"
       d="M 56,24 A 24,24 0 0 1 80,48 24,24 0 0 1 56,72 24,24 0 0 1 32,48 24,24 0 0 1 56,24 m 0,60 c 26.52,0 48,10.739999 48,24 v 12 H 8 V 108 C 8,94.739999 29.48,84 56,84 Z" />
  </g>
  <g
     id="g878"
     transform="matrix(1.7533823,0,0,1.7533823,-90.092611,9.3211799)">
    <path
       style="fill:none;stroke:#ffffff;stroke-width:8;stroke-linecap:round;stroke-linejoin:round;stroke-opacity:1"
       d="M 70.98354,60.263692 V 43.662567 L 76.517248,32.59515 82.050957,43.662567 87.584665,32.59515 93.118374,43.662567 98.652082,32.59515 104.18579,43.662567 V 14.887283 h 11.06742 v 45.376409 z"
       id="path874"
       sodipodi:nodetypes="cccccccccccc"
       inkscape:connector-curvature="0" />
    <path
       inkscape:connector-curvature="0"
       sodipodi:nodetypes="cccccccccccc"
       id="path2607"
       d="M 70.98354,60.263692 V 43.662567 L 76.517248,32.59515 82.050957,43.662567 87.584665,32.59515 93.118374,43.662567 98.652082,32.59515 104.18579,43.662567 V 14.887283 h 11.06742 v 45.376409 z"
       style="fill:#1a1a1a;stroke:#000000;stroke-width:2.44134188;stroke-linecap:round;stroke-linejoin:round;stroke-opacity:1" />
  </g>
</svg>
