<?xml version="1.0" encoding="UTF-8" standalone="no"?>
<svg
   xmlns:dc="http://purl.org/dc/elements/1.1/"
   xmlns:cc="http://creativecommons.org/ns#"
   xmlns:rdf="http://www.w3.org/1999/02/22-rdf-syntax-ns#"
   xmlns:svg="http://www.w3.org/2000/svg"
   xmlns="http://www.w3.org/2000/svg"
   xmlns:sodipodi="http://sodipodi.sourceforge.net/DTD/sodipodi-0.dtd"
   xmlns:inkscape="http://www.inkscape.org/namespaces/inkscape"
   version="1.1"
   width="128"
   height="128"
   viewBox="0 0 128 128"
   id="svg4"
   sodipodi:docname="account-off.svg"
   inkscape:version="0.92.5 (2060ec1f9f, 2020-04-08)">
  <metadata
     id="metadata10">
    <rdf:RDF>
      <cc:Work
         rdf:about="">
        <dc:format>image/svg+xml</dc:format>
        <dc:type
           rdf:resource="http://purl.org/dc/dcmitype/StillImage" />
        <dc:title></dc:title>
      </cc:Work>
    </rdf:RDF>
  </metadata>
  <defs
     id="defs8" />
  <sodipodi:namedview
     pagecolor="#ffffff"
     bordercolor="#666666"
     borderopacity="1"
     objecttolerance="10"
     gridtolerance="10"
     guidetolerance="10"
     inkscape:pageopacity="0"
     inkscape:pageshadow="2"
     inkscape:window-width="1848"
     inkscape:window-height="1016"
     id="namedview6"
     showgrid="false"
     inkscape:zoom="2.9741298"
     inkscape:cx="-5.9776514"
     inkscape:cy="18.966856"
     inkscape:window-x="72"
     inkscape:window-y="27"
     inkscape:window-maximized="1"
     inkscape:current-layer="svg4" />
  <path
     d="m 67.400697,15.038327 a 22.299652,22.299652 0 0 1 22.299651,22.299652 c 0,10.87108 -7.804878,19.958188 -18.118466,21.909407 L 45.491289,33.156794 C 47.442509,22.843205 56.529617,15.038327 67.400697,15.038327 m 1.560975,55.749129 33.449478,33.449474 9.58885,9.58885 -7.08014,7.13589 -16.724738,-16.72474 H 22.801394 V 93.087108 c 0,-10.25784 13.937282,-18.898955 32.724738,-21.519164 L 16,32.041811 23.080139,24.961672 68.961672,70.787456 M 112,93.087108 v 6.578394 L 84.905923,72.571428 C 100.85017,75.972125 112,83.888501 112,93.087108 Z"
     id="path2"
     inkscape:connector-curvature="0"
     style="stroke-width:5.57491302" />
</svg>
