<?xml version="1.0" encoding="UTF-8" standalone="no"?>
<svg
   xmlns:dc="http://purl.org/dc/elements/1.1/"
   xmlns:cc="http://creativecommons.org/ns#"
   xmlns:rdf="http://www.w3.org/1999/02/22-rdf-syntax-ns#"
   xmlns:svg="http://www.w3.org/2000/svg"
   xmlns="http://www.w3.org/2000/svg"
   xmlns:sodipodi="http://sodipodi.sourceforge.net/DTD/sodipodi-0.dtd"
   xmlns:inkscape="http://www.inkscape.org/namespaces/inkscape"
   viewBox="0 0 59.999998 60.000002"
   sodipodi:docname="autostop.svg"
   inkscape:version="1.0 (1.0+r73+1)"
   version="1.1"
   id="svg3586"
   height="64"
   width="64">
  <defs
     id="defs3588" />
  <sodipodi:namedview
     inkscape:document-rotation="0"
     inkscape:window-maximized="1"
     inkscape:window-y="0"
     inkscape:window-x="1987"
     inkscape:window-height="1172"
     inkscape:window-width="1853"
     fit-margin-bottom="0"
     fit-margin-right="0"
     fit-margin-left="0"
     fit-margin-top="0"
     units="mm"
     showgrid="false"
     inkscape:current-layer="layer1"
     inkscape:document-units="px"
     inkscape:cy="32.133025"
     inkscape:cx="65.295675"
     inkscape:zoom="7.7890625"
     inkscape:pageshadow="2"
     inkscape:pageopacity="0.0"
     borderopacity="1.0"
     bordercolor="#666666"
     pagecolor="#ffffff"
     id="base" />
  <metadata
     id="metadata3591">
    <rdf:RDF>
      <cc:Work
         rdf:about="">
        <dc:format>image/svg+xml</dc:format>
        <dc:type
           rdf:resource="http://purl.org/dc/dcmitype/StillImage" />
        <dc:title></dc:title>
      </cc:Work>
    </rdf:RDF>
  </metadata>
  <g
     transform="translate(-337.90576,-757.3126)"
     id="layer1"
     inkscape:groupmode="layer"
     inkscape:label="Calque 1">
    <path
       d="m 348.4902,768.65544 c -3.42689,0 -6.21629,2.7894 -6.21629,6.21629 0,3.42689 2.7894,6.21813 6.21629,6.21813 3.23646,0 5.86063,-2.50274 6.14464,-5.66688 h 5.16522 1.91102 a 0.55085259,0.55085259 0 0 0 0.55125,-0.55125 0.55085259,0.55085259 0 0 0 -0.55125,-0.54941 h -1.12456 l 1.64641,-4.94106 a 0.55090659,0.55090659 0 0 0 -0.52185,-0.72582 h -3.77792 a 0.55090659,0.55090659 0 0 0 -0.52185,0.72582 l 1.64825,4.94106 h -4.42472 c -0.28373,-3.16445 -2.90797,-5.66688 -6.14464,-5.66688 z m 0,1.10251 c 2.6456,0 4.8131,1.99304 5.08622,4.56437 h -2.79852 c -0.25456,-1.03071 -1.18633,-1.80627 -2.29136,-1.80627 -1.29825,0 -2.36488,1.06664 -2.36488,2.36487 0,1.29825 1.06663,2.34834 2.36488,2.34834 1.11084,0 2.04638,-0.77095 2.29505,-1.80628 h 2.79483 c -0.27396,2.57045 -2.44124,4.56437 -5.08622,4.56437 -2.8315,0 -5.11562,-2.28412 -5.11562,-5.11562 0,-2.83148 2.28412,-5.11378 5.11562,-5.11378 z m 10.20737,0 h 2.24911 l -1.12457,3.37182 z"
       style="color:#000000;font-style:normal;font-variant:normal;font-weight:normal;font-stretch:normal;font-size:medium;line-height:normal;font-family:sans-serif;font-variant-ligatures:normal;font-variant-position:normal;font-variant-caps:normal;font-variant-numeric:normal;font-variant-alternates:normal;font-variant-east-asian:normal;font-feature-settings:normal;font-variation-settings:normal;text-indent:0;text-align:start;text-decoration:none;text-decoration-line:none;text-decoration-style:solid;text-decoration-color:#000000;letter-spacing:normal;word-spacing:normal;text-transform:none;writing-mode:lr-tb;direction:ltr;text-orientation:mixed;dominant-baseline:auto;baseline-shift:baseline;text-anchor:start;white-space:normal;shape-padding:0;shape-margin:0;inline-size:0;clip-rule:nonzero;display:inline;overflow:visible;visibility:visible;isolation:auto;mix-blend-mode:normal;color-interpolation:sRGB;color-interpolation-filters:linearRGB;solid-color:#000000;solid-opacity:1;vector-effect:none;fill:#808080;fill-opacity:1;fill-rule:nonzero;stroke:none;stroke-width:1.10171;stroke-linecap:round;stroke-linejoin:round;stroke-miterlimit:4;stroke-dasharray:none;stroke-dashoffset:0;stroke-opacity:1;marker:none;color-rendering:auto;image-rendering:auto;shape-rendering:auto;text-rendering:auto;enable-background:accumulate;stop-color:#000000"
       id="path2385" />
    <path
       sodipodi:nodetypes="csc"
       id="path2372"
       d="m 342.06319,793.07919 c 0,0 15.44345,-1.83692 21.26519,-5.9319 8.34075,-5.86687 13.20763,-23.83565 13.20763,-23.83565"
       style="fill:none;fill-rule:evenodd;stroke:#808080;stroke-width:1.30508px;stroke-linecap:round;stroke-linejoin:round;stroke-opacity:1" />
    <circle
       r="1.7640111"
       cy="763.31158"
       cx="376.53598"
       id="path2374"
       style="color:#000000;overflow:visible;fill:#ff0000;fill-rule:evenodd;stroke:none;stroke-width:0.0733378;stroke-linecap:round;stroke-linejoin:round;stop-color:#000000" />
    <path
       sodipodi:nodetypes="cc"
       id="path2378"
       d="M 376.53601,763.31164 H 342.06319"
       style="fill:none;fill-rule:evenodd;stroke:#ff0000;stroke-width:0.65254;stroke-linecap:round;stroke-linejoin:round;stroke-miterlimit:4;stroke-dasharray:1.95763, 1.95763;stroke-dashoffset:0;stroke-opacity:1" />
    <g
       transform="matrix(1.4777585,0,0,1.4777585,-185.90715,-383.45985)"
       id="g2543">
      <path
         d="m 374.86521,810.95375 h 10.75946 l 7.60879,-7.60878 v -10.75958 l -7.60879,-7.60879 h -10.75946 l -7.6089,7.60879 v 10.75958 l 7.6089,7.60878"
         style="fill:#ffffff;fill-opacity:1;fill-rule:nonzero;stroke:none;stroke-width:0.0305473"
         id="path14" />
      <path
         d="m 374.86521,810.95375 h 10.75946 l 7.60879,-7.60878 v -10.75958 l -7.60879,-7.60879 h -10.75946 l -7.6089,7.60879 v 10.75958 l 7.6089,7.60878"
         style="fill:none;stroke:#231f20;stroke-width:0.46875;stroke-linecap:butt;stroke-linejoin:round;stroke-miterlimit:4;stroke-dasharray:none;stroke-opacity:1"
         id="path16" />
      <path
         d="m 375.28249,809.94522 h 9.92478 l 7.01751,-7.01752 v -9.92491 l -7.01751,-7.01751 h -9.92478 l -7.01765,7.01751 v 9.92491 l 7.01765,7.01752"
         style="fill:#ee2c30;fill-opacity:1;fill-rule:nonzero;stroke:none;stroke-width:0.0305473"
         id="path18" />
      <path
         d="m 370.90182,801.52047 c 0.18805,0.10896 0.41667,0.18472 0.68851,0.24857 0.27159,0.0553 0.57395,0.076 0.9071,0.076 0.6995,0 1.26246,-0.19355 1.66938,-0.58529 0.40689,-0.39006 0.60593,-0.93239 0.60593,-1.62734 v 0 c 0,-0.32552 -0.0418,-0.6082 -0.13639,-0.83578 -0.0933,-0.22767 -0.22865,-0.43432 -0.38603,-0.60807 -0.15606,-0.17373 -0.34402,-0.33648 -0.56298,-0.4773 -0.21884,-0.14187 -0.44865,-0.28269 -0.68839,-0.42348 -0.17708,-0.10872 -0.33421,-0.20681 -0.45976,-0.30465 -0.13518,-0.0968 -0.23959,-0.18353 -0.31226,-0.28137 -0.0835,-0.087 -0.14617,-0.18481 -0.17815,-0.29378 -0.0307,-0.0977 -0.0516,-0.21658 -0.0516,-0.34747 0,-0.29246 0.0933,-0.54209 0.28149,-0.72681 0.18805,-0.18484 0.44868,-0.28269 0.79292,-0.28269 0.26047,0 0.5113,0.0329 0.73005,0.0978 0.22003,0.0759 0.40689,0.15179 0.57416,0.23866 v 0 l 0.0319,-1.04148 v 0 c -0.13648,-0.0549 -0.33434,-0.11968 -0.57407,-0.17372 -0.2507,-0.0538 -0.53217,-0.0868 -0.84576,-0.0868 -0.29127,0 -0.56287,0.0427 -0.82359,0.11873 -0.2606,0.0869 -0.49044,0.21774 -0.68838,0.38041 -0.19917,0.17384 -0.35524,0.37946 -0.46955,0.62906 -0.11562,0.24963 -0.17708,0.53232 -0.17708,0.85774 0,0.33647 0.0406,0.60819 0.1352,0.83574 0.0935,0.22886 0.21897,0.43447 0.37515,0.59723 0.15714,0.17372 0.33422,0.32551 0.55306,0.45641 0.20895,0.1407 0.43879,0.28149 0.67849,0.43435 0.19798,0.11874 0.36513,0.23864 0.50046,0.33648 0.13627,0.10777 0.23961,0.21658 0.32313,0.31454 0.0737,0.0978 0.13651,0.20562 0.1673,0.31443 0.0319,0.11993 0.0418,0.23879 0.0418,0.38052 0,0.34653 -0.11443,0.61801 -0.33434,0.82466 -0.21875,0.20598 -0.51023,0.31479 -0.86547,0.31479 -0.29261,0 -0.56298,-0.054 -0.8237,-0.16288 -0.26182,-0.0978 -0.46955,-0.20677 -0.63673,-0.31442 v 0 l -0.0418,1.11711 v 0"
         style="fill:#ffffff;fill-opacity:1;fill-rule:nonzero;stroke:none;stroke-width:0.0305473"
         id="path20" />
      <path
         d="m 376.57742,801.75926 h 1.12606 v -6.6104 h 1.63847 v -0.96545 h -4.41302 v 0.96545 h 1.64849 v 6.6104"
         style="fill:#ffffff;fill-opacity:1;fill-rule:nonzero;stroke:none;stroke-width:0.0305473"
         id="path22" />
      <path
         d="m 379.96661,800.86969 c 0.25082,0.32539 0.54221,0.56406 0.88645,0.72694 0.3333,0.17241 0.69844,0.24841 1.08529,0.24841 0.40689,0 0.78192,-0.076 1.12618,-0.23769 0.34427,-0.16251 0.63685,-0.4013 0.88743,-0.72669 0.24976,-0.31479 0.44746,-0.72706 0.594,-1.21639 0.13627,-0.48818 0.20882,-1.07429 0.20882,-1.73643 v 0 c 0,-0.64006 -0.0725,-1.19422 -0.20882,-1.67152 -0.14654,-0.4773 -0.34424,-0.8787 -0.594,-1.20531 -0.25058,-0.31442 -0.54316,-0.56414 -0.87646,-0.72681 -0.34424,-0.16276 -0.71022,-0.23863 -1.09622,-0.23863 -0.40692,0 -0.77205,0.0759 -1.11629,0.23863 -0.34427,0.16267 -0.64556,0.40142 -0.89638,0.71692 -0.24951,0.32551 -0.44758,0.7379 -0.58385,1.22619 -0.1462,0.48827 -0.21884,1.07441 -0.21884,1.7364 0,0.64116 0.0726,1.19434 0.21884,1.67164 0.13627,0.47825 0.33434,0.87955 0.58385,1.19434 v 0"
         style="fill:#ffffff;fill-opacity:1;fill-rule:nonzero;stroke:none;stroke-width:0.0305473"
         id="path24" />
      <path
         d="m 385.52885,801.75926 h 1.12618 v -3.07156 h 0.67861 v 0 c 0.76188,0 1.34598,-0.19556 1.7419,-0.59699 0.38603,-0.39054 0.58495,-0.9546 0.58495,-1.68273 v 0 c 0,-0.72681 -0.19892,-1.28106 -0.59485,-1.66052 -0.39699,-0.37921 -0.93908,-0.56405 -1.61769,-0.56405 h -1.9191 v 7.57585"
         style="fill:#ffffff;fill-opacity:1;fill-rule:nonzero;stroke:none;stroke-width:0.0305473"
         id="path26" />
      <path
         d="m 380.74865,800.14264 c -0.28158,-0.52123 -0.41691,-1.23705 -0.41691,-2.13893 0,-0.55305 0.0408,-1.02058 0.13533,-1.39979 0.0835,-0.38053 0.19782,-0.69508 0.35413,-0.93371 0.1462,-0.22767 0.32337,-0.40143 0.5223,-0.51023 0.1981,-0.098 0.41682,-0.15179 0.63578,-0.15179 0.52227,0 0.91807,0.26059 1.19981,0.78195 0.27147,0.52012 0.40689,1.23704 0.40689,2.1377 v 0 c 0,0.55428 -0.0409,1.02046 -0.12445,1.39992 -0.0945,0.38052 -0.20882,0.69495 -0.35524,0.92249 -0.15606,0.23998 -0.33409,0.41349 -0.53219,0.51048 -0.19807,0.10896 -0.41679,0.16254 -0.63575,0.16254 -0.5223,0 -0.91822,-0.25953 -1.1897,-0.78063 v 0"
         style="fill:#ee2c30;fill-opacity:1;fill-rule:nonzero;stroke:none;stroke-width:0.0305473"
         id="path28" />
      <path
         d="m 386.65503,797.76508 v -2.65905 h 0.5113 v 0 c 0.44868,0 0.78302,0.10774 1.01307,0.31442 0.21863,0.21683 0.33318,0.5643 0.33318,1.03158 v 0 c 0,0.42348 -0.10465,0.7379 -0.31228,0.96557 -0.20919,0.22767 -0.55343,0.34748 -1.04386,0.34748 h -0.50141 v 0"
         style="fill:#ee2c30;fill-opacity:1;fill-rule:nonzero;stroke:none;stroke-width:0.0305473"
         id="path30" />
    </g>
  </g>
</svg>
