<?xml version="1.0" encoding="UTF-8" standalone="no"?>
<svg
   xmlns:dc="http://purl.org/dc/elements/1.1/"
   xmlns:cc="http://creativecommons.org/ns#"
   xmlns:rdf="http://www.w3.org/1999/02/22-rdf-syntax-ns#"
   xmlns:svg="http://www.w3.org/2000/svg"
   xmlns="http://www.w3.org/2000/svg"
   xmlns:sodipodi="http://sodipodi.sourceforge.net/DTD/sodipodi-0.dtd"
   xmlns:inkscape="http://www.inkscape.org/namespaces/inkscape"
   viewBox="0 0 59.999998 60.000002"
   sodipodi:docname="autoreverse.svg"
   inkscape:version="1.0 (1.0+r73+1)"
   version="1.1"
   id="svg3586"
   height="64"
   width="64">
  <defs
     id="defs3588" />
  <sodipodi:namedview
     inkscape:document-rotation="0"
     inkscape:window-maximized="1"
     inkscape:window-y="0"
     inkscape:window-x="1987"
     inkscape:window-height="1172"
     inkscape:window-width="1853"
     fit-margin-bottom="0"
     fit-margin-right="0"
     fit-margin-left="0"
     fit-margin-top="0"
     units="mm"
     showgrid="false"
     inkscape:current-layer="layer1"
     inkscape:document-units="px"
     inkscape:cy="32.133025"
     inkscape:cx="65.295675"
     inkscape:zoom="7.7890625"
     inkscape:pageshadow="2"
     inkscape:pageopacity="0.0"
     borderopacity="1.0"
     bordercolor="#666666"
     pagecolor="#ffffff"
     id="base" />
  <metadata
     id="metadata3591">
    <rdf:RDF>
      <cc:Work
         rdf:about="">
        <dc:format>image/svg+xml</dc:format>
        <dc:type
           rdf:resource="http://purl.org/dc/dcmitype/StillImage" />
        <dc:title></dc:title>
      </cc:Work>
    </rdf:RDF>
  </metadata>
  <g
     transform="translate(-337.90576,-757.3126)"
     id="layer1"
     inkscape:groupmode="layer"
     inkscape:label="Calque 1">
    <path
       d="m 348.4902,768.65544 c -3.42689,0 -6.21629,2.7894 -6.21629,6.21629 0,3.42689 2.7894,6.21813 6.21629,6.21813 3.23646,0 5.86063,-2.50274 6.14464,-5.66688 h 5.16522 1.91102 a 0.55085259,0.55085259 0 0 0 0.55125,-0.55125 0.55085259,0.55085259 0 0 0 -0.55125,-0.54941 h -1.12456 l 1.64641,-4.94106 a 0.55090659,0.55090659 0 0 0 -0.52185,-0.72582 h -3.77792 a 0.55090659,0.55090659 0 0 0 -0.52185,0.72582 l 1.64825,4.94106 h -4.42472 c -0.28373,-3.16445 -2.90797,-5.66688 -6.14464,-5.66688 z m 0,1.10251 c 2.6456,0 4.8131,1.99304 5.08622,4.56437 h -2.79852 c -0.25456,-1.03071 -1.18633,-1.80627 -2.29136,-1.80627 -1.29825,0 -2.36488,1.06664 -2.36488,2.36487 0,1.29825 1.06663,2.34834 2.36488,2.34834 1.11084,0 2.04638,-0.77095 2.29505,-1.80628 h 2.79483 c -0.27396,2.57045 -2.44124,4.56437 -5.08622,4.56437 -2.8315,0 -5.11562,-2.28412 -5.11562,-5.11562 0,-2.83148 2.28412,-5.11378 5.11562,-5.11378 z m 10.20737,0 h 2.24911 l -1.12457,3.37182 z"
       style="color:#000000;font-style:normal;font-variant:normal;font-weight:normal;font-stretch:normal;font-size:medium;line-height:normal;font-family:sans-serif;font-variant-ligatures:normal;font-variant-position:normal;font-variant-caps:normal;font-variant-numeric:normal;font-variant-alternates:normal;font-variant-east-asian:normal;font-feature-settings:normal;font-variation-settings:normal;text-indent:0;text-align:start;text-decoration:none;text-decoration-line:none;text-decoration-style:solid;text-decoration-color:#000000;letter-spacing:normal;word-spacing:normal;text-transform:none;writing-mode:lr-tb;direction:ltr;text-orientation:mixed;dominant-baseline:auto;baseline-shift:baseline;text-anchor:start;white-space:normal;shape-padding:0;shape-margin:0;inline-size:0;clip-rule:nonzero;display:inline;overflow:visible;visibility:visible;isolation:auto;mix-blend-mode:normal;color-interpolation:sRGB;color-interpolation-filters:linearRGB;solid-color:#000000;solid-opacity:1;vector-effect:none;fill:#808080;fill-opacity:1;fill-rule:nonzero;stroke:none;stroke-width:1.10171;stroke-linecap:round;stroke-linejoin:round;stroke-miterlimit:4;stroke-dasharray:none;stroke-dashoffset:0;stroke-opacity:1;marker:none;color-rendering:auto;image-rendering:auto;shape-rendering:auto;text-rendering:auto;enable-background:accumulate;stop-color:#000000"
       id="path2385" />
    <path
       sodipodi:nodetypes="csc"
       id="path2372"
       d="m 342.06319,793.07919 c 0,0 15.44345,-1.83692 21.26519,-5.9319 8.34075,-5.86687 13.20763,-23.83565 13.20763,-23.83565"
       style="fill:none;fill-rule:evenodd;stroke:#808080;stroke-width:1.30508px;stroke-linecap:round;stroke-linejoin:round;stroke-opacity:1" />
    <circle
       r="1.7640111"
       cy="763.31158"
       cx="376.53598"
       id="path2374"
       style="color:#000000;overflow:visible;fill:#ff0000;fill-rule:evenodd;stroke:none;stroke-width:0.0733378;stroke-linecap:round;stroke-linejoin:round;stop-color:#000000" />
    <path
       sodipodi:nodetypes="cc"
       id="path2378"
       d="M 376.53601,763.31164 H 342.06319"
       style="fill:none;fill-rule:evenodd;stroke:#ff0000;stroke-width:0.65254;stroke-linecap:round;stroke-linejoin:round;stroke-miterlimit:4;stroke-dasharray:1.95763, 1.95763;stroke-dashoffset:0;stroke-opacity:1" />
    <g
       transform="matrix(0.43093301,0,0,0.43093301,199.37272,473.7178)"
       id="g817">
      <path
         sodipodi:arc-type="arc"
         sodipodi:type="arc"
         style="color:#000000;display:inline;overflow:visible;visibility:visible;fill:none;stroke:#008080;stroke-width:9.375;stroke-linecap:round;stroke-linejoin:round;stroke-miterlimit:4;stroke-dasharray:none;stroke-dashoffset:0;stroke-opacity:1;marker:none;enable-background:accumulate"
         id="path18315"
         sodipodi:cx="410.59747"
         sodipodi:cy="771.43549"
         sodipodi:rx="44.416973"
         sodipodi:ry="44.416973"
         d="M 372.13125,749.227 A 44.416973,44.416973 0 0 1 410.59747,727.01851 44.416973,44.416973 0 0 1 449.0637,749.227"
         sodipodi:start="3.6651914"
         sodipodi:end="5.7595865"
         sodipodi:open="true" />
      <path
         style="color:#000000;display:inline;overflow:visible;visibility:visible;fill:#008080;stroke:#008080;stroke-width:7.5;stroke-linecap:round;stroke-linejoin:round;stroke-miterlimit:4;stroke-dasharray:none;stroke-dashoffset:0;stroke-opacity:1;marker:none;enable-background:accumulate"
         d="m 354.40519,779.92929 7.23415,-36.7598 20.98383,12.11501 z"
         id="path18317"
         inkscape:connector-curvature="0" />
    </g>
  </g>
</svg>
