<?xml version="1.0" encoding="UTF-8" standalone="no"?>
<svg
   xmlns:dc="http://purl.org/dc/elements/1.1/"
   xmlns:cc="http://creativecommons.org/ns#"
   xmlns:rdf="http://www.w3.org/1999/02/22-rdf-syntax-ns#"
   xmlns:svg="http://www.w3.org/2000/svg"
   xmlns="http://www.w3.org/2000/svg"
   xmlns:sodipodi="http://sodipodi.sourceforge.net/DTD/sodipodi-0.dtd"
   xmlns:inkscape="http://www.inkscape.org/namespaces/inkscape"
   height="64"
   viewBox="0 0 64 64"
   width="64"
   version="1.1"
   id="svg6"
   sodipodi:docname="help.svg"
   inkscape:version="0.92.5 (0.92.5+68)">
  <metadata
     id="metadata12">
    <rdf:RDF>
      <cc:Work
         rdf:about="">
        <dc:format>image/svg+xml</dc:format>
        <dc:type
           rdf:resource="http://purl.org/dc/dcmitype/StillImage" />
        <dc:title></dc:title>
      </cc:Work>
    </rdf:RDF>
  </metadata>
  <defs
     id="defs10" />
  <sodipodi:namedview
     pagecolor="#ffffff"
     bordercolor="#666666"
     borderopacity="1"
     objecttolerance="10"
     gridtolerance="10"
     guidetolerance="10"
     inkscape:pageopacity="0"
     inkscape:pageshadow="2"
     inkscape:window-width="1853"
     inkscape:window-height="1172"
     id="namedview8"
     showgrid="false"
     inkscape:zoom="4.9166667"
     inkscape:cx="36.468002"
     inkscape:cy="29.696793"
     inkscape:window-x="1987"
     inkscape:window-y="0"
     inkscape:window-maximized="1"
     inkscape:current-layer="svg6" />
  <path
     style="stroke-width:1;fill:#000080"
     d="M 32,2 C 15.44,2 2,15.44 2,32 2,48.56 15.44,62 32,62 48.56,62 62,48.56 62,32 62,15.44 48.56,2 32,2 Z"
     id="path834" />
  <path
     style="stroke-width:1;fill:#ffffff"
     d="M 32,56 C 18.77,56 8,45.23 8,32 8,18.77 18.77,8 32,8 45.23,8 56,18.77 56,32 56,45.23 45.23,56 32,56 Z"
     id="path832" />
  <path
     d="M 0,40 H 24 V 64 H 0 Z"
     id="path2"
     inkscape:connector-curvature="0"
     style="fill:none" />
  <path
     id="path4"
     style="stroke-width:1"
     d="m 32,14 c -6.63,0 -12,5.37 -12,12 h 6 c 0,-3.3 2.7,-6 6,-6 3.3,0 6,2.7 6,6 0,6 -9,5.25 -9,15 h 6 c 0,-6.75 9,-7.5 9,-15 0,-6.63 -5.37,-12 -12,-12 z m -3,36 h 6 v -6 h -6 z" />
</svg>
