<?xml version="1.0" encoding="UTF-8" standalone="no"?>
<!-- Generator: Adobe Illustrator 9.0, SVG Export Plug-In  -->

<svg
   xmlns:dc="http://purl.org/dc/elements/1.1/"
   xmlns:cc="http://creativecommons.org/ns#"
   xmlns:rdf="http://www.w3.org/1999/02/22-rdf-syntax-ns#"
   xmlns:svg="http://www.w3.org/2000/svg"
   xmlns="http://www.w3.org/2000/svg"
   xmlns:sodipodi="http://sodipodi.sourceforge.net/DTD/sodipodi-0.dtd"
   xmlns:inkscape="http://www.inkscape.org/namespaces/inkscape"
   width="256"
   height="256"
   viewBox="0 0 556.586 229.735"
   xml:space="preserve"
   id="svg2219"
   sodipodi:version="0.32"
   inkscape:version="0.91 r"
   sodipodi:docname="icon_dassym.svg"
   inkscape:output_extension="org.inkscape.output.svg.inkscape"
   inkscape:export-filename="/home/fvoillat/share/admin/DASSYM/Logos/icon_dassym-24.png"
   inkscape:export-xdpi="8.4399996"
   inkscape:export-ydpi="8.4399996"
   version="1.0"><metadata
     id="metadata2227"><rdf:RDF><cc:Work
         rdf:about=""><dc:format>image/svg+xml</dc:format><dc:type
           rdf:resource="http://purl.org/dc/dcmitype/StillImage" /></cc:Work></rdf:RDF></metadata><defs
     id="defs2225"><inkscape:perspective
       sodipodi:type="inkscape:persp3d"
       inkscape:vp_x="0 : 168.30708 : 1"
       inkscape:vp_y="0 : 1000 : 0"
       inkscape:vp_z="690.94489 : 168.30708 : 1"
       inkscape:persp3d-origin="345.47244 : 112.20472 : 1"
       id="perspective9" /></defs><sodipodi:namedview
     inkscape:window-height="949"
     inkscape:window-width="1280"
     inkscape:pageshadow="2"
     inkscape:pageopacity="0.0"
     guidetolerance="10.0"
     gridtolerance="10.0"
     objecttolerance="10.0"
     borderopacity="1.0"
     bordercolor="#666666"
     pagecolor="#ffffff"
     id="base"
     inkscape:document-units="cm"
     width="19.500001cm"
     height="9.5cm"
     units="cm"
     gridanglex="0.84666669cm"
     gridanglez="0.84666669cm"
     grid_units="cm"
     showgrid="true"
     inkscape:zoom="0.70019531"
     inkscape:cx="123.72576"
     inkscape:cy="197.65908"
     inkscape:window-x="182"
     inkscape:window-y="30"
     inkscape:current-layer="svg2219"
     inkscape:window-maximized="0"><inkscape:grid
       id="GridFromPre046Settings"
       type="xygrid"
       originx="0px"
       originy="0px"
       spacingx="0.1cm"
       spacingy="0.1cm"
       color="#0000ff"
       empcolor="#0000ff"
       opacity="0.2"
       empopacity="0.4"
       empspacing="5"
       units="cm"
       visible="true"
       enabled="true" /></sodipodi:namedview><path
     style="fill:#000000;fill-rule:nonzero;stroke:none;stroke-miterlimit:4"
     d="M 536.86909,309.35317 L 536.86909,168.4893 C 536.86909,150.05968 524.67861,133.85209 506.90812,128.58082 C 496.97498,125.63547 486.66176,124.13996 476.29583,124.13996 L 288.53656,124.13996 C 246.02608,42.842957 189.2486,-30.306407 120.90916,-91.803936 C 96.117462,-114.12331 57.866277,-112.24756 35.407922,-87.599928 C 25.319527,-76.533737 19.716906,-62.100486 19.716906,-47.158556 L 19.716906,337.1233 L 47.664665,337.1233 L 47.664665,-47.158556 C 47.664665,-55.209253 50.696079,-62.989804 56.1319,-68.948344 C 68.224325,-82.211873 88.84518,-83.20896 102.19836,-71.198376 C 164.43631,-15.173162 216.69784,50.853912 256.85848,124.13996 L 220.02899,124.13996 C 160.84882,124.13996 112.91561,171.78568 112.91561,230.60202 C 112.91561,289.41595 160.84649,337.1233 220.02899,337.1233 C 279.21148,337.1233 327.20158,289.41829 327.20158,230.60202 C 327.20158,216.92236 324.5416,203.42725 319.38569,190.75276 C 314.06274,177.65287 308.36843,164.68978 302.33281,151.91009 L 404.11717,151.91009 C 360.37657,191.52541 357.20672,258.89856 397.071,302.36623 C 417.37712,324.51029 446.15064,337.1233 476.29583,337.1233 L 536.86909,337.1233 L 536.86909,309.35317 z M 220.02899,151.91009 L 271.36525,151.91009 C 279.34845,168.04656 286.73372,184.44535 293.51031,201.11477 C 297.32312,210.48856 299.25382,220.49422 299.25382,230.60202 C 299.25382,274.07193 263.77668,309.35317 220.02899,309.35317 C 176.28836,309.35317 140.86339,274.07193 140.86339,230.60202 C 140.86339,187.12032 176.28836,151.91009 220.02899,151.91009 z M 483.16436,152.20616 C 488.40691,152.66563 493.67457,153.61342 498.91459,155.16673 C 504.83264,156.92694 508.9213,162.35542 508.9213,168.4893 L 508.9213,309.35317 L 476.29583,309.35317 C 468.6349,309.35317 461.02285,308.22301 453.6771,306.03733 C 411.76178,293.6247 387.8899,249.82159 400.38684,208.16092 C 411.32174,171.71805 446.46651,148.98988 483.16436,152.20616 z"
     id="path2222"
     sodipodi:nodetypes="ccsccccccccscccssscccccccccssssccscccccc" /><path
     style="fill:#ed1c24"
     inkscape:connector-curvature="0"
     id="path15"
     d="m 402.54505,29.66313 134.32404,0 0,-137.05142 -134.32404,0 0,137.05142 z m 25.59795,-81.286458 29.05184,0 0,-29.625343 25.01809,0 0,29.618954 29.05182,0 0,25.534265 -29.05182,0 0,29.6062042 -25.01809,0 0,-29.6062042 -29.05184,0 0,-25.527876 z" /></svg>