<?xml version="1.0" encoding="UTF-8" standalone="no"?>
<svg
   xmlns:dc="http://purl.org/dc/elements/1.1/"
   xmlns:cc="http://creativecommons.org/ns#"
   xmlns:rdf="http://www.w3.org/1999/02/22-rdf-syntax-ns#"
   xmlns:svg="http://www.w3.org/2000/svg"
   xmlns="http://www.w3.org/2000/svg"
   xmlns:sodipodi="http://sodipodi.sourceforge.net/DTD/sodipodi-0.dtd"
   xmlns:inkscape="http://www.inkscape.org/namespaces/inkscape"
   sodipodi:docname="indirect.svg"
   inkscape:version="1.0 (1.0+r73+1)"
   id="svg2647"
   version="1.1"
   viewBox="0 0 33.866666 33.866668"
   height="128"
   width="128">
  <defs
     id="defs2641" />
  <sodipodi:namedview
     inkscape:window-maximized="1"
     inkscape:window-y="0"
     inkscape:window-x="1987"
     inkscape:window-height="1172"
     inkscape:window-width="1853"
     units="px"
     showgrid="false"
     inkscape:document-rotation="0"
     inkscape:current-layer="layer1"
     inkscape:document-units="px"
     inkscape:cy="100.64205"
     inkscape:cx="65.137282"
     inkscape:zoom="3.8945313"
     inkscape:pageshadow="2"
     inkscape:pageopacity="0.0"
     borderopacity="1.0"
     bordercolor="#666666"
     pagecolor="#ffffff"
     id="base" />
  <metadata
     id="metadata2644">
    <rdf:RDF>
      <cc:Work
         rdf:about="">
        <dc:format>image/svg+xml</dc:format>
        <dc:type
           rdf:resource="http://purl.org/dc/dcmitype/StillImage" />
        <dc:title></dc:title>
      </cc:Work>
    </rdf:RDF>
  </metadata>
  <g
     id="layer1"
     inkscape:groupmode="layer"
     inkscape:label="Calque 1">
    <path
       id="path3226"
       d="M 12.063415,29.776446 C 11.033611,29.245334 10.527799,28.741888 10.049532,27.771984 9.6832121,27.029102 9.5706611,26.897796 9.1124351,26.678742 8.5145261,26.392912 7.2129216,25.040033 7.2129216,24.7044 c 0,-0.1301 0.6071094,-0.851419 1.4785725,-1.756721 2.0824159,-2.163275 2.3142969,-2.380272 2.5435319,-2.380272 0.111865,0 0.50642,0.254742 0.876788,0.566093 0.616648,0.518385 0.710218,0.560765 1.110317,0.502878 0.644943,-0.09331 2.43256,-0.785398 3.828033,-1.482046 1.358568,-0.678226 2.541015,-1.405715 4.065339,-2.50116 2.094925,-1.505505 2.39439,-1.695085 2.879552,-1.822944 1.292406,-0.340599 2.4876,0.787509 2.022912,1.909365 -0.07581,0.183016 -2.893217,2.981793 -6.376178,6.334007 -4.759844,4.581168 -6.313985,6.014011 -6.550712,6.039444 -0.184766,0.01985 -0.600627,-0.11636 -1.027662,-0.336598 z m 6.022664,-1.112527 c -0.197332,-0.234516 -0.291435,-0.479356 -0.291435,-0.758264 0,-0.392128 0.2123,-0.624215 4.420025,-4.831939 4.207724,-4.207724 4.43981,-4.420025 4.831938,-4.420025 0.631057,0 1.104616,0.449792 1.104616,1.049178 0,0.437635 -0.06385,0.530427 -1.038445,1.509089 l -1.038446,1.042781 2.389304,2.39875 c 2.324567,2.333757 2.389303,2.411133 2.389303,2.855842 0,0.634364 -0.416289,1.050654 -1.050653,1.050654 -0.444713,0 -0.522083,-0.06473 -2.856506,-2.389964 l -2.399412,-2.389965 -2.616884,2.615108 c -2.573695,2.571947 -2.624601,2.615107 -3.084427,2.615107 -0.383886,0 -0.519688,-0.06197 -0.758978,-0.346352 z"
       style="fill:#000000;stroke-width:0.112572" />
    <g
       transform="matrix(0.39719208,0,0,0.39719208,1.1794074,0.48371029)"
       id="g3236">
      <path
         d="M 43.861065,14.336389 41.18377,18.363214 A 17.4133,17.4133 0 0 1 40.704904,34.862316 H 10.536363 A 17.4133,17.4133 0 0 1 33.413086,10.592529 L 37.439912,7.915234 A 21.766625,21.766625 0 0 0 6.7925029,37.038979 4.3533251,4.3533251 0 0 0 10.536363,39.215642 H 40.683138 A 4.3533251,4.3533251 0 0 0 44.470531,37.038979 21.766625,21.766625 0 0 0 43.882832,14.314622 Z M 22.551539,29.224761 a 4.3533251,4.3533251 0 0 0 6.159955,0 l 12.31991,-18.479865 -18.479865,12.31991 a 4.3533251,4.3533251 0 0 0 0,6.159955 z"
         id="path4"
         inkscape:connector-curvature="0"
         style="stroke-width:1" />
    </g>
  </g>
</svg>
