<?xml version="1.0" encoding="UTF-8" standalone="no"?>
<!-- Created with Inkscape (http://www.inkscape.org/) -->

<svg
   xmlns:dc="http://purl.org/dc/elements/1.1/"
   xmlns:cc="http://creativecommons.org/ns#"
   xmlns:rdf="http://www.w3.org/1999/02/22-rdf-syntax-ns#"
   xmlns:svg="http://www.w3.org/2000/svg"
   xmlns="http://www.w3.org/2000/svg"
   xmlns:sodipodi="http://sodipodi.sourceforge.net/DTD/sodipodi-0.dtd"
   xmlns:inkscape="http://www.inkscape.org/namespaces/inkscape"
   width="35.432278"
   height="35.434059"
   id="svg2"
   version="1.1"
   inkscape:version="0.92.3 (unknown)"
   sodipodi:docname="memory-factory-reset.svg">
  <defs
     id="defs4" />
  <sodipodi:namedview
     id="base"
     pagecolor="#ffffff"
     bordercolor="#666666"
     borderopacity="1.0"
     inkscape:pageopacity="0.0"
     inkscape:pageshadow="2"
     inkscape:zoom="7.295241"
     inkscape:cx="39.79461"
     inkscape:cy="40.900486"
     inkscape:document-units="px"
     inkscape:current-layer="layer1"
     showgrid="false"
     inkscape:window-width="1855"
     inkscape:window-height="1176"
     inkscape:window-x="65"
     inkscape:window-y="24"
     inkscape:window-maximized="1"
     fit-margin-top="0"
     fit-margin-left="0"
     fit-margin-right="0"
     fit-margin-bottom="0"
     inkscape:object-paths="true"
     inkscape:snap-object-midpoints="true"
     inkscape:snap-center="true"
     inkscape:snap-global="false" />
  <metadata
     id="metadata7">
    <rdf:RDF>
      <cc:Work
         rdf:about="">
        <dc:format>image/svg+xml</dc:format>
        <dc:type
           rdf:resource="http://purl.org/dc/dcmitype/StillImage" />
        <dc:title></dc:title>
      </cc:Work>
    </rdf:RDF>
  </metadata>
  <g
     inkscape:label="Calque 1"
     inkscape:groupmode="layer"
     id="layer1"
     transform="translate(-318.34051,-561.44523)">
    <g
       id="g920"
       transform="matrix(0.6555973,0,0,0.6555973,115.87149,199.46731)">
      <g
         transform="matrix(0.00816288,0,0,0.00816288,-30.67744,434.56059)"
         id="g18277"
         style="display:inline">
        <path
           style="color:#000000;display:inline;overflow:visible;visibility:visible;fill:none;stroke:#800000;stroke-width:3.63636279;stroke-linecap:round;stroke-linejoin:round;stroke-miterlimit:4;stroke-dasharray:none;stroke-dashoffset:0;stroke-opacity:1;marker:none;enable-background:accumulate"
           d="m 414.56693,170.07873 -7.08662,7.08662 -17.71653,-17.71654 17.71653,-17.71653 7.08662,7.08661"
           id="path18279"
           inkscape:connector-curvature="0"
           transform="matrix(111.10364,0,0,111.10364,0,-0.80305274)" />
      </g>
      <path
         inkscape:connector-curvature="0"
         id="path880"
         d="m 347.30396,571.78629 a 0.20576528,0.20576528 0 0 0 -0.2057,0.20595 v 8.22225 l -1.35899,-2.71798 a 0.20576528,0.20576528 0 0 0 -0.36819,0 l -1.56468,3.12937 -1.56494,-3.12937 a 0.20576528,0.20576528 0 0 0 -0.36794,0 l -1.56494,3.12962 -1.56468,-3.12962 a 0.20576528,0.20576528 0 0 0 -0.36794,0 l -1.74903,3.49756 a 0.20576528,0.20576528 0 0 0 -0.0216,0.0919 v 5.24659 a 0.20576528,0.20576528 0 0 0 0.2057,0.20569 h 13.99074 a 0.20576528,0.20576528 0 0 0 0.20569,-0.20569 v -14.34035 a 0.20576528,0.20576528 0 0 0 -0.20569,-0.20595 z"
         style="color:#000000;font-style:normal;font-variant:normal;font-weight:normal;font-stretch:normal;font-size:medium;line-height:normal;font-family:sans-serif;font-variant-ligatures:normal;font-variant-position:normal;font-variant-caps:normal;font-variant-numeric:normal;font-variant-alternates:normal;font-feature-settings:normal;text-indent:0;text-align:start;text-decoration:none;text-decoration-line:none;text-decoration-style:solid;text-decoration-color:#000000;letter-spacing:normal;word-spacing:normal;text-transform:none;writing-mode:lr-tb;direction:ltr;text-orientation:mixed;dominant-baseline:auto;baseline-shift:baseline;text-anchor:start;white-space:normal;shape-padding:0;clip-rule:nonzero;display:inline;overflow:visible;visibility:visible;opacity:1;isolation:auto;mix-blend-mode:normal;color-interpolation:sRGB;color-interpolation-filters:linearRGB;solid-color:#000000;solid-opacity:1;vector-effect:none;fill:#000000;fill-opacity:1;fill-rule:nonzero;stroke:none;stroke-width:3.20000029;stroke-linecap:round;stroke-linejoin:round;stroke-miterlimit:4;stroke-dasharray:none;stroke-dashoffset:0;stroke-opacity:1;color-rendering:auto;image-rendering:auto;shape-rendering:auto;text-rendering:auto;enable-background:accumulate" />
    </g>
    <path
       style="color:#000000;font-style:normal;font-variant:normal;font-weight:normal;font-stretch:normal;font-size:medium;line-height:normal;font-family:sans-serif;font-variant-ligatures:normal;font-variant-position:normal;font-variant-caps:normal;font-variant-numeric:normal;font-variant-alternates:normal;font-feature-settings:normal;text-indent:0;text-align:start;text-decoration:none;text-decoration-line:none;text-decoration-style:solid;text-decoration-color:#000000;letter-spacing:normal;word-spacing:normal;text-transform:none;writing-mode:lr-tb;direction:ltr;text-orientation:mixed;dominant-baseline:auto;baseline-shift:baseline;text-anchor:start;white-space:normal;shape-padding:0;clip-rule:nonzero;display:inline;overflow:visible;visibility:visible;opacity:1;isolation:auto;mix-blend-mode:normal;color-interpolation:sRGB;color-interpolation-filters:linearRGB;solid-color:#000000;solid-opacity:1;vector-effect:none;fill:#008000;fill-opacity:1;fill-rule:evenodd;stroke:none;stroke-width:4.52568817;stroke-linecap:round;stroke-linejoin:round;stroke-miterlimit:4;stroke-dasharray:none;stroke-dashoffset:0;stroke-opacity:1;marker:none;color-rendering:auto;image-rendering:auto;shape-rendering:auto;text-rendering:auto;enable-background:accumulate"
       d="m 329.05382,563.26126 a 1.1349137,1.1349137 0 0 0 -1.06831,1.42295 l 0.47653,1.82187 c -2.87856,1.64779 -5.20812,4.22056 -6.53173,7.4161 -2.36541,5.71055 -1.05715,12.29231 3.3135,16.66294 4.37065,4.37067 10.95243,5.68114 16.66294,3.31576 5.71054,-2.36539 9.43968,-7.94635 9.43968,-14.12739 a 1.1349137,1.1349137 0 1 0 -2.26961,0 c 0,5.26959 -3.17041,10.01407 -8.03888,12.03066 -4.86847,2.0166 -10.46329,0.90246 -14.18944,-2.82369 -3.72618,-3.72616 -4.83805,-9.32098 -2.82149,-14.18944 1.04652,-2.52649 2.83054,-4.58983 5.0379,-5.99539 l 0.41223,1.57144 a 1.1349137,1.1349137 0 0 0 1.81746,0.58734 l 5.21964,-4.29094 a 1.1349137,1.1349137 0 0 0 -0.41004,-2.17653 l -6.82429,-1.20793 a 1.1349137,1.1349137 0 0 0 -0.22607,-0.0181 z"
       id="path882"
       inkscape:connector-curvature="0" />
  </g>
</svg>
