<?xml version="1.0" encoding="UTF-8" standalone="no"?>
<svg
   xmlns:dc="http://purl.org/dc/elements/1.1/"
   xmlns:cc="http://creativecommons.org/ns#"
   xmlns:rdf="http://www.w3.org/1999/02/22-rdf-syntax-ns#"
   xmlns:svg="http://www.w3.org/2000/svg"
   xmlns="http://www.w3.org/2000/svg"
   xmlns:sodipodi="http://sodipodi.sourceforge.net/DTD/sodipodi-0.dtd"
   xmlns:inkscape="http://www.inkscape.org/namespaces/inkscape"
   height="64"
   viewBox="0 0 64 64"
   width="64"
   version="1.1"
   id="svg6"
   sodipodi:docname="speed.svg"
   inkscape:version="0.92.5 (0.92.5+68)">
  <metadata
     id="metadata12">
    <rdf:RDF>
      <cc:Work
         rdf:about="">
        <dc:format>image/svg+xml</dc:format>
        <dc:type
           rdf:resource="http://purl.org/dc/dcmitype/StillImage" />
        <dc:title></dc:title>
      </cc:Work>
    </rdf:RDF>
  </metadata>
  <defs
     id="defs10" />
  <sodipodi:namedview
     pagecolor="#ffffff"
     bordercolor="#666666"
     borderopacity="1"
     objecttolerance="10"
     gridtolerance="10"
     guidetolerance="10"
     inkscape:pageopacity="0"
     inkscape:pageshadow="2"
     inkscape:window-width="1853"
     inkscape:window-height="1172"
     id="namedview8"
     showgrid="false"
     inkscape:zoom="9.8333333"
     inkscape:cx="12.079837"
     inkscape:cy="28.24358"
     inkscape:window-x="1987"
     inkscape:window-y="0"
     inkscape:window-maximized="1"
     inkscape:current-layer="svg6" />
  <path
     d="M 0,40 H 24 V 64 H 0 Z"
     id="path2"
     inkscape:connector-curvature="0"
     style="fill:none" />
  <path
     d="m 57.133674,21.636115 -3.696025,5.559062 A 24.03919,24.03919 0 0 1 52.776571,49.97231 H 11.128674 A 24.03919,24.03919 0 0 1 42.71016,16.467689 l 5.559063,-3.696026 A 30.048988,30.048988 0 0 0 5.9602474,52.977209 6.0097976,6.0097976 0 0 0 11.128674,55.982108 H 52.746522 A 6.0097976,6.0097976 0 0 0 57.975046,52.977209 30.048988,30.048988 0 0 0 57.163723,21.606066 Z M 27.715715,42.189623 a 6.0097976,6.0097976 0 0 0 8.503864,0 L 53.227306,16.678032 27.715715,33.685759 a 6.0097976,6.0097976 0 0 0 0,8.503864 z"
     id="path4"
     inkscape:connector-curvature="0"
     style="stroke-width:0.99999994" />
</svg>
