<?xml version="1.0" encoding="UTF-8" standalone="no"?>
<svg
   version="1.1"
   width="64"
   height="64"
   viewBox="0 0 64 64"
   id="svg4"
   sodipodi:docname="unknow.svg"
   inkscape:version="1.1.2 (0a00cf5339, 2022-02-04)"
   xmlns:inkscape="http://www.inkscape.org/namespaces/inkscape"
   xmlns:sodipodi="http://sodipodi.sourceforge.net/DTD/sodipodi-0.dtd"
   xmlns:xlink="http://www.w3.org/1999/xlink"
   xmlns="http://www.w3.org/2000/svg"
   xmlns:svg="http://www.w3.org/2000/svg"
   xmlns:rdf="http://www.w3.org/1999/02/22-rdf-syntax-ns#"
   xmlns:cc="http://creativecommons.org/ns#"
   xmlns:dc="http://purl.org/dc/elements/1.1/">
  <metadata
     id="metadata10">
    <rdf:RDF>
      <cc:Work
         rdf:about="">
        <dc:format>image/svg+xml</dc:format>
        <dc:type
           rdf:resource="http://purl.org/dc/dcmitype/StillImage" />
      </cc:Work>
    </rdf:RDF>
  </metadata>
  <defs
     id="defs8" />
  <sodipodi:namedview
     pagecolor="#ffffff"
     bordercolor="#666666"
     borderopacity="1"
     objecttolerance="10"
     gridtolerance="10"
     guidetolerance="10"
     inkscape:pageopacity="0"
     inkscape:pageshadow="2"
     inkscape:window-width="1846"
     inkscape:window-height="1136"
     id="namedview6"
     showgrid="false"
     inkscape:zoom="9.8333334"
     inkscape:cx="44.288135"
     inkscape:cy="36.254237"
     inkscape:window-x="1994"
     inkscape:window-y="27"
     inkscape:window-maximized="1"
     inkscape:current-layer="svg4"
     inkscape:pagecheckerboard="0" />
  <path
     style="stroke-width:2.66599989"
     d="M 32,5.34 C 17.25702,5.34 5.34,17.337 5.34,32 A 26.66,26.66 0 0 0 32,58.66 26.66,26.66 0 0 0 58.66,32 26.66,26.66 0 0 0 32,5.34"
     id="path814" />
  <path
     style="stroke-width:2.66599989;fill:#e6e6e6"
     d="M 32,53.328 A 21.328,21.328 0 0 1 10.672,32 21.328,21.328 0 0 1 32,10.672 21.328,21.328 0 0 1 53.328,32 21.328,21.328 0 0 1 32,53.328 Z"
     id="path2" />
  <g
     id="g1393"
     transform="translate(0.54460053)">
    <circle
       style="color:#000000;overflow:visible;fill:#000000;fill-rule:evenodd;stroke:none;stroke-width:1.40232;stroke-linecap:round;stroke-linejoin:round;stop-color:#000000"
       id="path1025"
       cx="31.4554"
       cy="32"
       r="3" />
    <use
       x="0"
       y="0"
       xlink:href="#path1025"
       id="use1272"
       transform="translate(-8.2673555)"
       width="100%"
       height="100%" />
    <use
       x="0"
       y="0"
       xlink:href="#path1025"
       id="use1274"
       transform="translate(8.2673535)"
       width="100%"
       height="100%" />
  </g>
</svg>
