<?xml version="1.0" encoding="UTF-8" standalone="no"?>
<!-- Created with Inkscape (http://www.inkscape.org/) -->

<svg
   xmlns:dc="http://purl.org/dc/elements/1.1/"
   xmlns:cc="http://creativecommons.org/ns#"
   xmlns:rdf="http://www.w3.org/1999/02/22-rdf-syntax-ns#"
   xmlns:svg="http://www.w3.org/2000/svg"
   xmlns="http://www.w3.org/2000/svg"
   xmlns:sodipodi="http://sodipodi.sourceforge.net/DTD/sodipodi-0.dtd"
   xmlns:inkscape="http://www.inkscape.org/namespaces/inkscape"
   width="128"
   height="128"
   viewBox="0 0 128 128"
   version="1.1"
   id="svg8"
   inkscape:version="0.92.4 (unknown)"
   sodipodi:docname="upload-firmware.svg">
  <defs
     id="defs2" />
  <sodipodi:namedview
     id="base"
     pagecolor="#ffffff"
     bordercolor="#666666"
     borderopacity="1.0"
     inkscape:pageopacity="0.0"
     inkscape:pageshadow="2"
     inkscape:zoom="4.0390625"
     inkscape:cx="24.221656"
     inkscape:cy="39.820921"
     inkscape:document-units="px"
     inkscape:current-layer="layer1"
     showgrid="true"
     units="px"
     inkscape:snap-grids="true"
     inkscape:snap-global="false"
     inkscape:snap-center="true"
     inkscape:snap-object-midpoints="true"
     inkscape:window-width="1853"
     inkscape:window-height="1172"
     inkscape:window-x="1987"
     inkscape:window-y="0"
     inkscape:window-maximized="1"
     showguides="false">
    <inkscape:grid
       type="xygrid"
       id="grid815"
       units="px"
       spacingx="1"
       spacingy="1" />
  </sodipodi:namedview>
  <metadata
     id="metadata5">
    <rdf:RDF>
      <cc:Work
         rdf:about="">
        <dc:format>image/svg+xml</dc:format>
        <dc:type
           rdf:resource="http://purl.org/dc/dcmitype/StillImage" />
        <dc:title></dc:title>
      </cc:Work>
    </rdf:RDF>
  </metadata>
  <g
     inkscape:label="Calque 1"
     inkscape:groupmode="layer"
     id="layer1"
     transform="translate(0,-216.06665)">
    <g
       id="g821"
       transform="matrix(2.3711417,0,0,2.3711417,-11.876534,-459.88759)">
      <path
         inkscape:connector-curvature="0"
         d="m 21.84808,300.52121 c -0.522161,-1.9e-4 -0.945502,0.42316 -0.945312,0.94532 v 10.58594 c -1.84e-4,0.52216 0.423155,0.9455 0.945312,0.94531 h 10.585938 c 0.522157,1.9e-4 0.945496,-0.42315 0.945312,-0.94531 v -10.58594 c 1.9e-4,-0.52216 -0.423151,-0.94551 -0.945312,-0.94532 z m -3.58789,-4.53295 c -1.044317,-3.8e-4 -1.890996,0.8463 -1.890625,1.89062 v 17.76172 c -3.71e-4,1.04432 0.846308,1.89099 1.890625,1.89062 h 17.761718 c 1.044317,3.7e-4 1.890996,-0.8463 1.890625,-1.89062 v -17.76172 c 3.71e-4,-1.04432 -0.846308,-1.891 -1.890625,-1.89062 z m 0.814453,1.75976 h 16.132812 c 0.522159,-1.9e-4 0.945499,0.42315 0.945313,0.94531 v 16.13282 c 1.86e-4,0.52215 -0.423154,0.94549 -0.945313,0.94531 H 19.074643 c -0.522159,1.8e-4 -0.945499,-0.42316 -0.945313,-0.94531 v -16.13282 c -1.86e-4,-0.52216 0.423154,-0.9455 0.945313,-0.94531 z m 14.052734,-10.94555 a 0.9449764,0.9449764 0 0 0 -0.93164,0.95703 v 6 a 0.945312,0.945312 0 1 0 1.890624,0 v -6 a 0.9449764,0.9449764 0 0 0 -0.958984,-0.95703 z m -6,0 a 0.9449764,0.9449764 0 0 0 -0.93164,0.95703 v 6 a 0.945312,0.945312 0 1 0 1.890624,0 v -6 a 0.9449764,0.9449764 0 0 0 -0.958984,-0.95703 z m -6,0 a 0.9449764,0.9449764 0 0 0 -0.93164,0.95703 v 6 a 0.945312,0.945312 0 1 0 1.890624,0 v -6 a 0.9449764,0.9449764 0 0 0 -0.958984,-0.95703 z m 12,33 a 0.9449764,0.9449764 0 0 0 -0.93164,0.95703 v 6 a 0.945312,0.945312 0 1 0 1.890624,0 v -6 a 0.9449764,0.9449764 0 0 0 -0.958984,-0.95703 z m -6,0 a 0.9449764,0.9449764 0 0 0 -0.93164,0.95703 v 6 a 0.945312,0.945312 0 1 0 1.890624,0 v -6 a 0.9449764,0.9449764 0 0 0 -0.958984,-0.95703 z m -6,0 a 0.9449764,0.9449764 0 0 0 -0.93164,0.95703 v 6 a 0.945312,0.945312 0 1 0 1.890624,0 v -6 a 0.9449764,0.9449764 0 0 0 -0.958984,-0.95703 z m 19.513672,-7.98829 a 0.945315,0.945315 0 1 0 0,1.89063 h 6 a 0.945315,0.945315 0 1 0 0,-1.89063 z m 0,-6 a 0.945315,0.945315 0 1 0 0,1.89063 h 6 a 0.945315,0.945315 0 1 0 0,-1.89063 z m 0,-6 a 0.945315,0.945315 0 1 0 0,1.89063 h 6 a 0.945315,0.945315 0 1 0 0,-1.89063 z m -32.9999998,12 a 0.945315,0.945315 0 1 0 0,1.89063 h 5.9999998 a 0.945315,0.945315 0 1 0 0,-1.89063 z m 0,-6 a 0.945315,0.945315 0 1 0 0,1.89063 h 5.9999998 a 0.945315,0.945315 0 1 0 0,-1.89063 z m 0,-6 a 0.945315,0.945315 0 1 0 0,1.89063 h 5.9999998 a 0.945315,0.945315 0 1 0 0,-1.89063 z"
         style="color:#000000;font-style:normal;font-variant:normal;font-weight:normal;font-stretch:normal;font-size:medium;line-height:normal;font-family:sans-serif;font-variant-ligatures:normal;font-variant-position:normal;font-variant-caps:normal;font-variant-numeric:normal;font-variant-alternates:normal;font-feature-settings:normal;text-indent:0;text-align:start;text-decoration:none;text-decoration-line:none;text-decoration-style:solid;text-decoration-color:#000000;letter-spacing:normal;word-spacing:normal;text-transform:none;writing-mode:lr-tb;direction:ltr;text-orientation:mixed;dominant-baseline:auto;baseline-shift:baseline;text-anchor:start;white-space:normal;shape-padding:0;clip-rule:nonzero;display:inline;overflow:visible;visibility:visible;opacity:1;isolation:auto;mix-blend-mode:normal;color-interpolation:sRGB;color-interpolation-filters:linearRGB;solid-color:#000000;solid-opacity:1;vector-effect:none;fill:#4d4d4d;fill-opacity:1;fill-rule:evenodd;stroke:none;stroke-width:1.88976395;stroke-linecap:round;stroke-linejoin:round;stroke-miterlimit:4;stroke-dasharray:none;stroke-dashoffset:0;stroke-opacity:1;marker:none;color-rendering:auto;image-rendering:auto;shape-rendering:auto;text-rendering:auto;enable-background:accumulate"
         id="rect902" />
      <g
         transform="translate(-17.865657,-15.862673)"
         id="g1275">
        <path
           inkscape:connector-curvature="0"
           style="color:#000000;clip-rule:nonzero;display:inline;overflow:visible;visibility:visible;opacity:1;isolation:auto;mix-blend-mode:normal;color-interpolation:sRGB;color-interpolation-filters:linearRGB;solid-color:#000000;solid-opacity:1;vector-effect:none;fill:#44aa00;fill-opacity:1;fill-rule:evenodd;stroke:none;stroke-width:1.88976383;stroke-linecap:round;stroke-linejoin:round;stroke-miterlimit:4;stroke-dasharray:none;stroke-dashoffset:0;stroke-opacity:1;marker:none;color-rendering:auto;image-rendering:auto;shape-rendering:auto;text-rendering:auto;enable-background:accumulate"
           d="m 59.984375,45.056641 a 0.4724882,0.4724882 0 0 0 -0.466797,0.394531 l -0.464844,2.796875 a 11.052224,11.052224 0 0 0 -1.535156,0.414062 l -1.802734,-2.191406 a 0.4724882,0.4724882 0 0 0 -0.373047,-0.171875 0.4724882,0.4724882 0 0 0 -0.228516,0.0625 l -0.996093,0.576172 -0.996094,0.574219 a 0.4724882,0.4724882 0 0 0 -0.207032,0.576172 l 0.998047,2.658203 a 11.052224,11.052224 0 0 0 -1.130859,1.121094 l -2.650391,-0.994141 a 0.4724882,0.4724882 0 0 0 -0.185547,-0.03125 0.4724882,0.4724882 0 0 0 -0.390624,0.236328 l -0.574219,0.996094 -0.576172,0.996093 a 0.4724882,0.4724882 0 0 0 0.109375,0.601563 l 2.191406,1.802734 a 11.052224,11.052224 0 0 0 -0.419922,1.539063 l -2.791015,0.464844 a 0.4724882,0.4724882 0 0 0 -0.394532,0.464843 v 1.150391 1.150391 a 0.4724882,0.4724882 0 0 0 0.394532,0.466797 l 2.796875,0.464843 a 11.052224,11.052224 0 0 0 0.414062,1.533203 l -2.191406,1.802735 a 0.4724882,0.4724882 0 0 0 -0.109375,0.601562 l 0.576172,0.996094 0.574219,0.996094 a 0.4724882,0.4724882 0 0 0 0.576171,0.207031 l 2.658203,-0.996094 a 11.052224,11.052224 0 0 0 1.119141,1.13086 l -0.994141,2.648437 a 0.4724882,0.4724882 0 0 0 0.207032,0.576172 l 0.996094,0.574219 0.996093,0.576172 a 0.4724882,0.4724882 0 0 0 0.601563,-0.109375 l 1.802734,-2.189453 a 11.052224,11.052224 0 0 0 1.535156,0.417968 l 0.464844,2.791016 a 0.4724882,0.4724882 0 0 0 0.466797,0.394531 h 1.150391 1.15039 a 0.4724882,0.4724882 0 0 0 0.466797,-0.394531 l 0.464844,-2.792969 a 11.052224,11.052224 0 0 0 1.535156,-0.416015 l 1.802735,2.189453 a 0.4724882,0.4724882 0 0 0 0.601562,0.109375 l 0.996094,-0.576172 0.996094,-0.574219 a 0.4724882,0.4724882 0 0 0 0.207031,-0.576172 l -0.996094,-2.65625 a 11.052224,11.052224 0 0 0 1.128906,-1.121094 l 2.650391,0.994141 a 0.4724882,0.4724882 0 0 0 0.576172,-0.207031 l 0.574218,-0.996094 0.576172,-0.996094 a 0.4724882,0.4724882 0 0 0 -0.109375,-0.601562 l -2.191406,-1.802735 a 11.052224,11.052224 0 0 0 0.419922,-1.535156 l 2.791016,-0.464844 a 0.4724882,0.4724882 0 0 0 0.394531,-0.466796 v -1.150391 -1.150391 a 0.4724882,0.4724882 0 0 0 -0.394531,-0.464844 l -2.792969,-0.464843 a 11.052224,11.052224 0 0 0 -0.417969,-1.53711 l 2.191406,-1.802734 a 0.4724882,0.4724882 0 0 0 0.109375,-0.601563 l -0.576172,-0.996093 -0.574218,-0.996094 a 0.4724882,0.4724882 0 0 0 -0.435547,-0.236328 0.4724882,0.4724882 0 0 0 -0.140625,0.03125 l -2.65625,0.996094 a 11.052224,11.052224 0 0 0 -1.121094,-1.132813 l 0.994141,-2.648437 A 0.4724882,0.4724882 0 0 0 69.148438,47.511719 L 68.152344,46.9375 67.15625,46.361328 a 0.4724882,0.4724882 0 0 0 -0.224609,-0.0625 0.4724882,0.4724882 0 0 0 -0.376953,0.171875 l -1.802735,2.191406 a 11.052224,11.052224 0 0 0 -1.535156,-0.417968 l -0.464844,-2.792969 a 0.4724882,0.4724882 0 0 0 -0.466797,-0.394531 h -1.15039 z"
           transform="translate(0,280.06665)"
           id="path906" />
        <path
           style="fill:#ffffff;fill-rule:evenodd;stroke:#ffffff;stroke-width:1px;stroke-linecap:round;stroke-linejoin:round;stroke-opacity:1"
           d="m 56.710232,338.97654 -1.414214,1.41421 v -7.07107 h 7.071068 l -1.414213,1.41422 7.071068,7.07106 -4.242641,4.24264 z"
           id="path979"
           inkscape:connector-curvature="0"
           sodipodi:nodetypes="cccccccc" />
      </g>
    </g>
  </g>
</svg>
