<?xml version="1.0" encoding="UTF-8" standalone="no"?>
<svg
   xmlns:dc="http://purl.org/dc/elements/1.1/"
   xmlns:cc="http://creativecommons.org/ns#"
   xmlns:rdf="http://www.w3.org/1999/02/22-rdf-syntax-ns#"
   xmlns:svg="http://www.w3.org/2000/svg"
   xmlns="http://www.w3.org/2000/svg"
   xmlns:sodipodi="http://sodipodi.sourceforge.net/DTD/sodipodi-0.dtd"
   xmlns:inkscape="http://www.inkscape.org/namespaces/inkscape"
   height="64"
   viewBox="0 0 64 64"
   width="64"
   version="1.1"
   id="svg6"
   sodipodi:docname="acceleration.svg"
   inkscape:version="0.92.5 (0.92.5+68)">
  <metadata
     id="metadata12">
    <rdf:RDF>
      <cc:Work
         rdf:about="">
        <dc:format>image/svg+xml</dc:format>
        <dc:type
           rdf:resource="http://purl.org/dc/dcmitype/StillImage" />
        <dc:title></dc:title>
      </cc:Work>
    </rdf:RDF>
  </metadata>
  <defs
     id="defs10" />
  <sodipodi:namedview
     pagecolor="#ffffff"
     bordercolor="#666666"
     borderopacity="1"
     objecttolerance="10"
     gridtolerance="10"
     guidetolerance="10"
     inkscape:pageopacity="0"
     inkscape:pageshadow="2"
     inkscape:window-width="1853"
     inkscape:window-height="1172"
     id="namedview8"
     showgrid="false"
     inkscape:zoom="6.9532167"
     inkscape:cx="5.8363933"
     inkscape:cy="26.628337"
     inkscape:window-x="1987"
     inkscape:window-y="0"
     inkscape:window-maximized="1"
     inkscape:current-layer="svg6" />
  <path
     d="M 43.861065,14.336389 41.18377,18.363214 A 17.4133,17.4133 0 0 1 40.704904,34.862316 H 10.536363 A 17.4133,17.4133 0 0 1 33.413086,10.592529 L 37.439912,7.915234 A 21.766625,21.766625 0 0 0 6.7925029,37.038979 4.3533251,4.3533251 0 0 0 10.536363,39.215642 H 40.683138 A 4.3533251,4.3533251 0 0 0 44.470531,37.038979 21.766625,21.766625 0 0 0 43.882832,14.314622 Z M 22.551539,29.224761 a 4.3533251,4.3533251 0 0 0 6.159955,0 l 12.31991,-18.479865 -18.479865,12.31991 a 4.3533251,4.3533251 0 0 0 0,6.159955 z"
     id="path4"
     inkscape:connector-curvature="0"
     style="stroke-width:0.99999994" />
  <path
     style="fill:#000000;fill-rule:evenodd;stroke:none;stroke-width:1px;stroke-linecap:butt;stroke-linejoin:miter;stroke-opacity:1"
     d="m 17.262628,59.528296 h 42.81356 V 37.946052 Z"
     id="path866"
     inkscape:connector-curvature="0" />
</svg>
