<?xml version="1.0" encoding="UTF-8" standalone="no"?>
<svg
   xmlns:dc="http://purl.org/dc/elements/1.1/"
   xmlns:cc="http://creativecommons.org/ns#"
   xmlns:rdf="http://www.w3.org/1999/02/22-rdf-syntax-ns#"
   xmlns:svg="http://www.w3.org/2000/svg"
   xmlns="http://www.w3.org/2000/svg"
   xmlns:sodipodi="http://sodipodi.sourceforge.net/DTD/sodipodi-0.dtd"
   xmlns:inkscape="http://www.inkscape.org/namespaces/inkscape"
   version="1.1"
   width="64"
   height="64"
   viewBox="0 0 64 64"
   id="svg4"
   sodipodi:docname="fatal-error.svg"
   inkscape:version="0.92.4 (unknown)">
  <metadata
     id="metadata10">
    <rdf:RDF>
      <cc:Work
         rdf:about="">
        <dc:format>image/svg+xml</dc:format>
        <dc:type
           rdf:resource="http://purl.org/dc/dcmitype/StillImage" />
        <dc:title></dc:title>
      </cc:Work>
    </rdf:RDF>
  </metadata>
  <defs
     id="defs8" />
  <sodipodi:namedview
     pagecolor="#ffffff"
     bordercolor="#666666"
     borderopacity="1"
     objecttolerance="10"
     gridtolerance="10"
     guidetolerance="10"
     inkscape:pageopacity="0"
     inkscape:pageshadow="2"
     inkscape:window-width="1853"
     inkscape:window-height="1172"
     id="namedview6"
     showgrid="false"
     inkscape:zoom="9.8333334"
     inkscape:cx="32.564773"
     inkscape:cy="30.478336"
     inkscape:window-x="1987"
     inkscape:window-y="0"
     inkscape:window-maximized="1"
     inkscape:current-layer="svg4" />
  <path
     style="stroke-width:2.66599989"
     d="M 32,5.34 C 17.25702,5.34 5.34,17.337 5.34,32 A 26.66,26.66 0 0 0 32,58.66 26.66,26.66 0 0 0 58.66,32 26.66,26.66 0 0 0 32,5.34"
     id="path814" />
  <path
     style="stroke-width:2.66599989;fill:#ff0000"
     d="M 32,53.328 A 21.328,21.328 0 0 1 10.672,32 21.328,21.328 0 0 1 32,10.672 21.328,21.328 0 0 1 53.328,32 21.328,21.328 0 0 1 32,53.328 Z"
     id="path2" />
  <path
     style="stroke-width:2.66599989"
     d="M 39.540587,20.68912 43.31088,24.459413 24.459413,43.310881 20.68912,39.540588 39.540587,20.68912"
     id="path816"
     inkscape:connector-curvature="0" />
  <path
     inkscape:connector-curvature="0"
     id="path815"
     d="M 20.689119,24.459413 24.459413,20.689121 43.310881,39.540587 39.540587,43.31088 20.689119,24.459413"
     style="stroke-width:2.66599989" />
</svg>
