<?xml version="1.0" encoding="UTF-8" standalone="no"?>
<!-- Generator: Adobe Illustrator 9.0, SVG Export Plug-In  -->

<svg
   xmlns:dc="http://purl.org/dc/elements/1.1/"
   xmlns:cc="http://creativecommons.org/ns#"
   xmlns:rdf="http://www.w3.org/1999/02/22-rdf-syntax-ns#"
   xmlns:svg="http://www.w3.org/2000/svg"
   xmlns="http://www.w3.org/2000/svg"
   xmlns:sodipodi="http://sodipodi.sourceforge.net/DTD/sodipodi-0.dtd"
   xmlns:inkscape="http://www.inkscape.org/namespaces/inkscape"
   width="128"
   height="128"
   viewBox="0 0 260.89967 107.68828"
   xml:space="preserve"
   id="svg2219"
   sodipodi:version="0.32"
   inkscape:version="0.92.4 (unknown)"
   sodipodi:docname="icon_dassym.svg"
   inkscape:output_extension="org.inkscape.output.svg.inkscape"
   inkscape:export-filename="/home/fvoillat/share/admin/DASSYM/Logos/icon_dassym-24.png"
   inkscape:export-xdpi="8.4399996"
   inkscape:export-ydpi="8.4399996"
   version="1.0"><metadata
     id="metadata2227"><rdf:RDF><cc:Work
         rdf:about=""><dc:format>image/svg+xml</dc:format><dc:type
           rdf:resource="http://purl.org/dc/dcmitype/StillImage" /><dc:title></dc:title></cc:Work></rdf:RDF></metadata><defs
     id="defs2225"><inkscape:perspective
       sodipodi:type="inkscape:persp3d"
       inkscape:vp_x="0 : 168.30708 : 1"
       inkscape:vp_y="0 : 999.99999 : 0"
       inkscape:vp_z="690.94484 : 168.30708 : 1"
       inkscape:persp3d-origin="345.47242 : 112.20471 : 1"
       id="perspective9" /></defs><sodipodi:namedview
     inkscape:window-height="1025"
     inkscape:window-width="1853"
     inkscape:pageshadow="2"
     inkscape:pageopacity="0.0"
     guidetolerance="10.0"
     gridtolerance="10.0"
     objecttolerance="10.0"
     borderopacity="1.0"
     bordercolor="#666666"
     pagecolor="#ffffff"
     id="base"
     inkscape:document-units="cm"
     width="19.500001cm"
     height="9.5cm"
     units="cm"
     gridanglex="0.84666669cm"
     gridanglez="0.84666669cm"
     grid_units="cm"
     showgrid="true"
     inkscape:zoom="2.8007812"
     inkscape:cx="49.246032"
     inkscape:cy="34.625555"
     inkscape:window-x="67"
     inkscape:window-y="27"
     inkscape:current-layer="svg2219"
     inkscape:window-maximized="1"><inkscape:grid
       id="GridFromPre046Settings"
       type="xygrid"
       originx="0"
       originy="0"
       spacingx="8.2173126"
       spacingy="3.3917567"
       color="#0000ff"
       empcolor="#0000ff"
       opacity="0.2"
       empopacity="0.4"
       empspacing="5"
       units="cm"
       visible="true"
       enabled="true" /></sodipodi:namedview><g
     id="g817"
     transform="matrix(0.50449303,0,0,0.50449303,-9.9470428,145.06597)"
     style="stroke-width:1.98218799"><path
       inkscape:connector-curvature="0"
       sodipodi:nodetypes="ccsccccccccscccssscccccccccssssccscccccc"
       id="path2222"
       d="M 536.86909,13.666848 V -127.19702 c 0,-18.42962 -12.19048,-34.63721 -29.96097,-39.90848 -9.93314,-2.94535 -20.24636,-4.44086 -30.61229,-4.44086 H 288.53656 c -42.51048,-81.297 -99.28796,-154.44637 -167.6274,-215.9439 -24.791698,-22.31937 -63.042883,-20.44362 -85.501238,4.20401 -10.088395,11.06619 -15.691016,25.49944 -15.691016,40.44137 V 41.436978 H 47.664665 V -342.84488 c 0,-8.05069 3.031414,-15.83125 8.467235,-21.78979 12.092425,-13.26352 32.71328,-14.26061 46.06646,-2.25003 62.23795,56.02522 114.49948,122.05229 154.66012,195.33834 h -36.82949 c -59.18017,0 -107.11338,47.64572 -107.11338,106.462058 0,58.8139303 47.93088,106.52128 107.11338,106.52128 59.18249,0 107.17259,-47.7050097 107.17259,-106.52128 0,-13.67966 -2.65998,-27.17477 -7.81589,-39.849258 -5.32295,-13.09989 -11.01726,-26.06298 -17.05288,-38.84267 h 101.78436 c -43.7406,39.61532 -46.91045,106.988468 -7.04617,150.4561383 20.30612,22.1440597 49.07964,34.7570697 79.22483,34.7570697 h 60.57326 z M 220.02899,-143.77623 h 51.33626 c 7.9832,16.13647 15.36847,32.53526 22.14506,49.204678 3.81281,9.37379 5.74351,19.37945 5.74351,29.48725 0,43.46991 -35.47714,78.75115 -79.22483,78.75115 -43.74063,0 -79.1656,-35.28124 -79.1656,-78.75115 0,-43.481698 35.42497,-78.691928 79.1656,-78.691928 z m 263.13537,0.29607 c 5.24255,0.45947 10.51021,1.40726 15.75023,2.96057 5.91805,1.76021 10.00671,7.18869 10.00671,13.32257 V 13.666848 h -32.62547 c -7.66093,0 -15.27298,-1.13016 -22.61873,-3.31584 -41.91532,-12.4126297 -65.7872,-56.21574 -53.29026,-97.87641 10.9349,-36.442868 46.07967,-59.171038 82.77752,-55.954758 z"
       style="fill:#000000;fill-rule:nonzero;stroke:none;stroke-width:1.98218799;stroke-miterlimit:4" /><path
       d="M 402.54505,-266.02319 H 536.86909 V -403.07461 H 402.54505 Z m 25.59795,-81.28646 h 29.05184 v -29.62534 h 25.01809 v 29.61895 h 29.05182 v 25.53427 h -29.05182 v 29.6062 h -25.01809 v -29.6062 H 428.143 Z"
       id="path15"
       inkscape:connector-curvature="0"
       style="fill:#ed1c24;stroke-width:1.98218799" /></g></svg>