<?xml version="1.0" encoding="UTF-8" standalone="no"?>
<svg
   xmlns:dc="http://purl.org/dc/elements/1.1/"
   xmlns:cc="http://creativecommons.org/ns#"
   xmlns:rdf="http://www.w3.org/1999/02/22-rdf-syntax-ns#"
   xmlns:svg="http://www.w3.org/2000/svg"
   xmlns="http://www.w3.org/2000/svg"
   xmlns:sodipodi="http://sodipodi.sourceforge.net/DTD/sodipodi-0.dtd"
   xmlns:inkscape="http://www.inkscape.org/namespaces/inkscape"
   height="128"
   viewBox="0 0 128 128"
   width="128"
   version="1.1"
   id="svg6"
   sodipodi:docname="link.svg"
   inkscape:version="0.92.4 (unknown)">
  <metadata
     id="metadata12">
    <rdf:RDF>
      <cc:Work
         rdf:about="">
        <dc:format>image/svg+xml</dc:format>
        <dc:type
           rdf:resource="http://purl.org/dc/dcmitype/StillImage" />
        <dc:title></dc:title>
      </cc:Work>
    </rdf:RDF>
  </metadata>
  <defs
     id="defs10" />
  <sodipodi:namedview
     pagecolor="#ffffff"
     bordercolor="#666666"
     borderopacity="1"
     objecttolerance="10"
     gridtolerance="10"
     guidetolerance="10"
     inkscape:pageopacity="0"
     inkscape:pageshadow="2"
     inkscape:window-width="1853"
     inkscape:window-height="1025"
     id="namedview8"
     showgrid="false"
     inkscape:zoom="1.7383042"
     inkscape:cx="-158.74171"
     inkscape:cy="100.73851"
     inkscape:window-x="67"
     inkscape:window-y="147"
     inkscape:window-maximized="1"
     inkscape:current-layer="svg6" />
  <path
     d="m 0,104 h 24 v 24 H 0 Z"
     id="path2"
     inkscape:connector-curvature="0"
     style="fill:none" />
  <path
     d="M 94,34 H 76 c -3.3,0 -6,2.7 -6,6 0,3.3 2.7,6 6,6 h 18 c 9.9,0 18,8.1 18,18 0,9.9 -8.1,18 -18,18 H 76 c -3.3,0 -6,2.7 -6,6 0,3.3 2.7,6 6,6 H 94 C 110.56,94 124,80.56 124,64 124,47.44 110.56,34 94,34 Z M 40,64 c 0,3.3 2.7,6 6,6 h 36 c 3.3,0 6,-2.7 6,-6 0,-3.3 -2.7,-6 -6,-6 H 46 c -3.3,0 -6,2.7 -6,6 z M 52,82 H 34 C 24.1,82 16,73.9 16,64 16,54.1 24.1,46 34,46 h 18 c 3.3,0 6,-2.7 6,-6 0,-3.3 -2.7,-6 -6,-6 H 34 C 17.44,34 4,47.44 4,64 4,80.56 17.44,94 34,94 h 18 c 3.3,0 6,-2.7 6,-6 0,-3.3 -2.7,-6 -6,-6 z"
     id="path4"
     inkscape:connector-curvature="0"
     style="stroke-width:6" />
</svg>
