<?xml version="1.0" encoding="UTF-8" standalone="no"?>
<!-- Created with Inkscape (http://www.inkscape.org/) -->

<svg
   xmlns:dc="http://purl.org/dc/elements/1.1/"
   xmlns:cc="http://creativecommons.org/ns#"
   xmlns:rdf="http://www.w3.org/1999/02/22-rdf-syntax-ns#"
   xmlns:svg="http://www.w3.org/2000/svg"
   xmlns="http://www.w3.org/2000/svg"
   xmlns:xlink="http://www.w3.org/1999/xlink"
   xmlns:sodipodi="http://sodipodi.sourceforge.net/DTD/sodipodi-0.dtd"
   xmlns:inkscape="http://www.inkscape.org/namespaces/inkscape"
   width="400"
   height="200"
   viewBox="0 0 105.83333 52.916668"
   version="1.1"
   id="svg8"
   inkscape:version="0.92.5 (2060ec1f9f, 2020-04-08)"
   sodipodi:docname="splashscreen.svg"
   inkscape:export-filename="/home/fvoillat/eclipse-workspace/ISPA/app/gui/res/img/splashscreen.png"
   inkscape:export-xdpi="96"
   inkscape:export-ydpi="96">
  <defs
     id="defs2">
    <rect
       height="97.828003"
       width="240.617"
       y="21.951"
       x="23.108999"
       id="SVGID_1_" />
    <rect
       height="97.828003"
       width="240.617"
       y="21.951"
       x="23.108999"
       id="SVGID_3_" />
    <defs
       id="defs7">
      <rect
         height="97.828003"
         width="240.617"
         y="21.951"
         x="23.108999"
         id="rect448" />
    </defs>
    <clipPath
       id="SVGID_2_">
      <use
         height="100%"
         width="100%"
         y="0"
         x="0"
         style="overflow:visible"
         id="use11"
         overflow="visible"
         xlink:href="#SVGID_1_" />
    </clipPath>
    <defs
       id="defs19">
      <rect
         height="97.828003"
         width="240.617"
         y="21.951"
         x="23.108999"
         id="rect456" />
    </defs>
    <clipPath
       id="SVGID_4_">
      <use
         height="100%"
         width="100%"
         y="0"
         x="0"
         style="overflow:visible"
         id="use23"
         overflow="visible"
         xlink:href="#SVGID_3_" />
    </clipPath>
  </defs>
  <sodipodi:namedview
     id="base"
     pagecolor="#ffffff"
     bordercolor="#666666"
     borderopacity="1.0"
     inkscape:pageopacity="0.0"
     inkscape:pageshadow="2"
     inkscape:zoom="6.8763415"
     inkscape:cx="345.12867"
     inkscape:cy="20.972019"
     inkscape:document-units="px"
     inkscape:current-layer="layer1"
     showgrid="false"
     units="px"
     inkscape:window-width="1920"
     inkscape:window-height="1043"
     inkscape:window-x="0"
     inkscape:window-y="0"
     inkscape:window-maximized="1"
     inkscape:snap-page="true"
     inkscape:snap-grids="false"
     inkscape:snap-to-guides="false"
     inkscape:snap-nodes="false"
     inkscape:snap-bbox="true"
     inkscape:bbox-nodes="true" />
  <metadata
     id="metadata5">
    <rdf:RDF>
      <cc:Work
         rdf:about="">
        <dc:format>image/svg+xml</dc:format>
        <dc:type
           rdf:resource="http://purl.org/dc/dcmitype/StillImage" />
        <dc:title />
      </cc:Work>
    </rdf:RDF>
  </metadata>
  <g
     inkscape:label="Calque 1"
     inkscape:groupmode="layer"
     id="layer1"
     transform="translate(0,-244.0833)">
    <rect
       style="color:#000000;clip-rule:nonzero;display:inline;overflow:visible;visibility:visible;opacity:1;isolation:auto;mix-blend-mode:normal;color-interpolation:sRGB;color-interpolation-filters:linearRGB;solid-color:#000000;solid-opacity:1;vector-effect:none;fill:#ffffff;fill-opacity:1;fill-rule:evenodd;stroke:#000000;stroke-width:0.52522588;stroke-linecap:square;stroke-linejoin:miter;stroke-miterlimit:4;stroke-dasharray:none;stroke-dashoffset:22.6780014;stroke-opacity:1;color-rendering:auto;image-rendering:auto;shape-rendering:auto;text-rendering:auto;enable-background:accumulate"
       id="rect317"
       width="105.30811"
       height="52.391445"
       x="0.26261294"
       y="244.3459" />
    <path
       style="stroke-width:0.59055126"
       inkscape:connector-curvature="0"
       id="path13"
       d="m 256.878,64.118 h -8.562 c -1.558,0 -3.068,0.522 -4.282,1.479 -1.217,-0.957 -2.724,-1.479 -4.279,-1.479 h -15.413 v 32.046 c 0,0.934 -0.768,1.687 -1.714,1.687 h -12.843 c -0.944,0 -1.715,-0.753 -1.715,-1.687 V 64.118 h -32.538 c -6.15,0 -11.134,4.908 -11.134,10.963 0,6.055 4.983,10.964 11.134,10.964 h 8.563 c 3.309,0 5.99,2.643 5.99,5.901 0,3.263 -2.682,5.904 -5.99,5.904 h -29.157 c 3.31,-5.103 1.795,-11.881 -3.383,-15.141 -1.791,-1.125 -3.869,-1.726 -5.994,-1.726 H 137 c -3.314,0 -5.999,-2.644 -5.999,-5.906 0,-3.257 2.685,-5.899 5.999,-5.899 h 19.692 V 64.117 H 137 c -6.149,0 -11.134,4.908 -11.134,10.963 0,6.055 4.985,10.965 11.134,10.965 h 8.561 c 3.31,0 5.994,2.643 5.994,5.901 0,3.263 -2.685,5.904 -5.994,5.904 H 118.158 V 72.203 c 0,-3.358 -2.237,-6.316 -5.502,-7.276 -1.829,-0.538 -3.724,-0.809 -5.629,-0.809 H 72.515 C 64.704,49.311 54.27,35.991 41.71,24.789 37.156,20.726 30.115,21.067 25.986,25.557 c -1.852,2.017 -2.877,4.638 -2.877,7.357 v 69.999 h 5.137 V 32.914 c 0,-1.463 0.551,-2.876 1.55,-3.961 2.222,-2.418 6.013,-2.601 8.468,-0.415 11.439,10.204 21.053,22.234 28.435,35.58 h -6.771 c -10.877,0 -19.694,8.686 -19.694,19.398 0,10.712 8.817,19.396 19.694,19.396 10.877,0 19.695,-8.684 19.695,-19.396 0,-2.494 -0.485,-4.957 -1.433,-7.268 -0.979,-2.389 -2.025,-4.741 -3.132,-7.07 h 18.7 c -8.037,7.215 -8.617,19.483 -1.289,27.401 3.729,4.033 9.016,6.333 14.557,6.333 h 77.068 c 6.146,0 11.134,-4.911 11.134,-10.967 0,-6.052 -4.987,-10.962 -11.134,-10.962 h -8.563 c -3.31,0 -5.995,-2.644 -5.995,-5.906 0,-3.257 2.686,-5.899 5.995,-5.899 h 27.402 v 26.985 c 0,3.726 3.068,6.749 6.851,6.749 h 14.557 v 5.904 c 0,3.258 -2.685,5.902 -5.995,5.902 H 23.109 v 5.06 h 195.233 c 6.148,0 11.134,-4.912 11.134,-10.962 V 69.179 h 10.277 c 0.944,0 1.71,0.752 1.71,1.687 v 32.048 h 5.141 V 70.865 c 0,-0.935 0.766,-1.687 1.711,-1.687 h 8.562 c 0.948,0 1.716,0.752 1.716,1.687 v 32.048 h 5.133 V 70.865 c 10e-4,-3.725 -3.061,-6.747 -6.848,-6.747 M 59.928,97.851 c -8.036,0 -14.558,-6.416 -14.558,-14.334 0,-7.919 6.521,-14.338 14.558,-14.338 h 9.429 c 1.467,2.94 2.824,5.93 4.071,8.964 0.7,1.707 1.059,3.533 1.059,5.374 -10e-4,7.918 -6.518,14.334 -14.559,14.334 m 53.092,0 h -5.993 c -1.41,0 -2.81,-0.198 -4.163,-0.598 -7.702,-2.26 -12.083,-10.246 -9.789,-17.835 2.297,-7.585 10.405,-11.904 18.111,-9.64 1.087,0.317 1.832,1.307 1.832,2.425 v 25.65 z"
       clip-path="url(#SVGID_2_)"
       transform="matrix(0.0765296,0,0,0.0765296,81.226293,283.48168)" />
    <path
       d="m 99.753727,286.8509 h 1.613163 v -1.64593 h -1.613163 z m 0.307423,-0.97622 h 0.34889 v -0.35578 h 0.30046 v 0.35571 h 0.3489 v 0.30665 h -0.3489 v 0.35556 h -0.30046 v -0.35556 h -0.34889 z"
       id="path15"
       inkscape:connector-curvature="0"
       style="fill:#ed1c24;stroke-width:0.04519465" />
    <path
       style="stroke-width:0.59055126"
       inkscape:connector-curvature="0"
       id="path25"
       d="m 134.089,38.52 c -0.491,-0.529 -1.387,-1.023 -2.693,-1.484 -0.775,-0.276 -1.355,-0.528 -1.732,-0.756 -0.377,-0.227 -0.644,-0.479 -0.803,-0.751 -0.163,-0.271 -0.243,-0.621 -0.243,-1.05 0,-0.58 0.222,-1.033 0.65,-1.357 0.431,-0.327 1.029,-0.489 1.796,-0.489 0.969,0 1.967,0.212 2.994,0.641 l 0.453,-1.248 c -1.038,-0.45 -2.176,-0.675 -3.413,-0.675 -1.187,0 -2.14,0.281 -2.86,0.843 -0.719,0.562 -1.082,1.319 -1.082,2.268 0,0.907 0.252,1.643 0.745,2.205 0.496,0.562 1.324,1.047 2.48,1.458 0.829,0.291 1.445,0.552 1.853,0.784 0.406,0.23 0.694,0.481 0.867,0.754 0.173,0.275 0.262,0.621 0.262,1.05 0,0.646 -0.243,1.152 -0.73,1.514 -0.493,0.362 -1.219,0.544 -2.181,0.544 -0.589,0 -1.187,-0.062 -1.79,-0.186 -0.602,-0.123 -1.156,-0.292 -1.665,-0.505 v 1.383 c 0.793,0.375 1.927,0.564 3.402,0.564 1.364,0 2.442,-0.304 3.233,-0.909 0.794,-0.607 1.192,-1.455 1.192,-2.541 0,-0.846 -0.249,-1.53 -0.735,-2.057 m 12.533,5.338 2.578,-9.245 h -1.462 c -1.086,4.117 -1.673,6.384 -1.776,6.808 -0.097,0.42 -0.158,0.731 -0.181,0.935 h -0.066 c -0.116,-0.66 -0.328,-1.47 -0.647,-2.438 l -1.67,-5.304 h -1.528 l -1.715,5.304 c -0.103,0.301 -0.222,0.703 -0.359,1.211 -0.142,0.511 -0.239,0.924 -0.305,1.246 h -0.067 c -0.044,-0.424 -0.226,-1.241 -0.54,-2.457 -0.314,-1.21 -0.771,-2.979 -1.374,-5.304 h -1.479 l 2.543,9.245 h 1.636 l 1.762,-5.406 c 0.169,-0.536 0.368,-1.294 0.595,-2.279 h 0.07 c 0.292,1.177 0.497,1.929 0.604,2.262 l 1.71,5.424 h 1.671 z m 5.855,-9.245 h -1.414 v 9.245 h 1.414 z m -1.295,-1.8 c 0.159,0.155 0.359,0.231 0.593,0.231 0.232,0 0.426,-0.076 0.59,-0.231 0.165,-0.155 0.249,-0.39 0.249,-0.705 0,-0.312 -0.084,-0.548 -0.249,-0.699 -0.164,-0.151 -0.357,-0.229 -0.59,-0.229 -0.233,0 -0.434,0.075 -0.593,0.224 -0.159,0.149 -0.24,0.385 -0.24,0.704 -0.001,0.316 0.08,0.55 0.24,0.705 m 9.897,6.995 c -0.391,-0.402 -1.134,-0.806 -2.242,-1.204 -0.806,-0.3 -1.351,-0.524 -1.634,-0.683 -0.284,-0.158 -0.488,-0.323 -0.621,-0.499 -0.123,-0.175 -0.19,-0.385 -0.19,-0.633 0,-0.366 0.173,-0.651 0.515,-0.86 0.337,-0.205 0.846,-0.311 1.515,-0.311 0.758,0 1.609,0.19 2.543,0.574 l 0.501,-1.14 c -0.957,-0.405 -1.94,-0.607 -2.942,-0.607 -1.08,0 -1.928,0.217 -2.548,0.654 -0.615,0.437 -0.924,1.03 -0.924,1.782 0,0.424 0.087,0.784 0.266,1.089 0.181,0.304 0.449,0.575 0.818,0.812 0.364,0.241 0.983,0.52 1.852,0.839 0.913,0.351 1.524,0.651 1.843,0.909 0.314,0.255 0.47,0.563 0.47,0.923 0,0.478 -0.198,0.832 -0.594,1.066 -0.398,0.233 -0.966,0.35 -1.704,0.35 -0.475,0 -0.972,-0.066 -1.486,-0.193 -0.513,-0.129 -0.991,-0.308 -1.438,-0.532 v 1.299 c 0.689,0.389 1.656,0.582 2.894,0.582 1.164,0 2.078,-0.232 2.724,-0.7 0.647,-0.466 0.967,-1.128 0.967,-1.989 -0.004,-0.615 -0.195,-1.121 -0.585,-1.528 m 8.489,0 c -0.391,-0.402 -1.136,-0.806 -2.243,-1.204 -0.806,-0.3 -1.351,-0.524 -1.635,-0.683 -0.283,-0.158 -0.491,-0.323 -0.615,-0.499 -0.128,-0.175 -0.194,-0.385 -0.194,-0.633 0,-0.366 0.172,-0.651 0.509,-0.86 0.347,-0.205 0.846,-0.311 1.517,-0.311 0.761,0 1.607,0.19 2.546,0.574 l 0.5,-1.14 c -0.957,-0.405 -1.938,-0.607 -2.94,-0.607 -1.082,0 -1.929,0.217 -2.544,0.654 -0.62,0.437 -0.93,1.03 -0.93,1.782 0,0.424 0.088,0.784 0.271,1.089 0.177,0.304 0.447,0.575 0.814,0.812 0.364,0.241 0.985,0.52 1.851,0.839 0.915,0.351 1.526,0.651 1.84,0.909 0.319,0.255 0.475,0.563 0.475,0.923 0,0.478 -0.199,0.832 -0.594,1.066 -0.399,0.233 -0.967,0.35 -1.705,0.35 -0.475,0 -0.971,-0.066 -1.485,-0.193 -0.514,-0.129 -0.991,-0.308 -1.44,-0.532 v 1.299 c 0.692,0.389 1.658,0.582 2.894,0.582 1.17,0 2.079,-0.232 2.726,-0.7 0.642,-0.466 0.97,-1.128 0.97,-1.989 -0.004,-0.615 -0.199,-1.121 -0.588,-1.528 m 21.057,4.05 v -6.033 c 0,-1.179 -0.261,-2.039 -0.788,-2.574 -0.522,-0.538 -1.312,-0.806 -2.371,-0.806 -0.673,0 -1.271,0.141 -1.802,0.422 -0.527,0.282 -0.931,0.664 -1.21,1.147 h -0.066 c -0.447,-1.045 -1.4,-1.569 -2.858,-1.569 -0.603,0 -1.147,0.124 -1.63,0.379 -0.487,0.254 -0.859,0.607 -1.13,1.055 h -0.066 l -0.229,-1.266 h -1.148 v 9.245 h 1.414 v -4.85 c 0,-1.198 0.203,-2.059 0.615,-2.586 0.412,-0.525 1.059,-0.789 1.946,-0.789 0.672,0 1.168,0.187 1.487,0.556 0.318,0.365 0.479,0.916 0.479,1.654 v 6.015 h 1.409 v -5.164 c 0,-1.04 0.214,-1.81 0.628,-2.31 0.422,-0.502 1.072,-0.751 1.954,-0.751 0.669,0 1.161,0.187 1.476,0.556 0.318,0.365 0.479,0.916 0.479,1.654 v 6.015 z m 9.983,-8.123 c -0.767,-0.859 -1.806,-1.29 -3.112,-1.29 -1.351,0 -2.404,0.422 -3.161,1.263 -0.764,0.838 -1.143,2.012 -1.143,3.519 0,0.972 0.176,1.823 0.525,2.547 0.355,0.726 0.851,1.281 1.497,1.67 0.647,0.389 1.392,0.582 2.221,0.582 1.355,0 2.409,-0.422 3.176,-1.27 0.766,-0.845 1.148,-2.023 1.148,-3.529 0.001,-1.469 -0.382,-2.631 -1.151,-3.492 m -5.246,0.799 c 0.474,-0.599 1.17,-0.9 2.095,-0.9 0.936,0 1.644,0.307 2.124,0.916 0.477,0.608 0.717,1.501 0.717,2.677 0,1.188 -0.24,2.087 -0.717,2.705 -0.48,0.613 -1.186,0.921 -2.111,0.921 -0.92,0 -1.621,-0.308 -2.1,-0.925 -0.475,-0.62 -0.714,-1.521 -0.714,-2.701 0,-1.192 0.237,-2.088 0.706,-2.693 m 10.615,5.888 c -0.266,-0.296 -0.399,-0.727 -0.399,-1.279 v -5.44 h 2.707 v -1.089 h -2.707 v -2.143 h -0.813 l -0.599,1.975 -1.334,0.581 v 0.676 h 1.334 V 41.2 c 0,1.884 0.904,2.826 2.706,2.826 0.239,0 0.51,-0.025 0.806,-0.07 0.298,-0.047 0.525,-0.109 0.676,-0.183 v -1.071 c -0.133,0.04 -0.319,0.077 -0.555,0.114 -0.231,0.037 -0.474,0.055 -0.721,0.055 -0.467,-0.001 -0.831,-0.148 -1.101,-0.449 m 5.827,-7.809 h -1.414 v 9.245 h 1.414 z m -1.294,-1.8 c 0.158,0.155 0.358,0.231 0.598,0.231 0.226,0 0.419,-0.076 0.585,-0.231 0.163,-0.155 0.248,-0.39 0.248,-0.705 0,-0.312 -0.085,-0.548 -0.248,-0.699 -0.166,-0.151 -0.359,-0.229 -0.585,-0.229 -0.239,0 -0.439,0.075 -0.598,0.224 -0.16,0.148 -0.24,0.385 -0.24,0.704 0,0.316 0.08,0.55 0.24,0.705 m 11.364,2.922 c -0.771,-0.859 -1.809,-1.29 -3.114,-1.29 -1.349,0 -2.403,0.422 -3.165,1.263 -0.758,0.838 -1.139,2.012 -1.139,3.519 0,0.972 0.172,1.823 0.527,2.547 0.351,0.726 0.852,1.281 1.498,1.67 0.646,0.389 1.387,0.582 2.221,0.582 1.351,0 2.41,-0.422 3.176,-1.27 0.762,-0.845 1.147,-2.023 1.147,-3.529 0,-1.469 -0.385,-2.631 -1.151,-3.492 m -5.245,0.799 c 0.463,-0.599 1.163,-0.9 2.091,-0.9 0.934,0 1.642,0.307 2.122,0.916 0.477,0.608 0.722,1.501 0.722,2.677 0,1.188 -0.245,2.087 -0.722,2.705 -0.48,0.613 -1.179,0.921 -2.104,0.921 -0.925,0 -1.627,-0.308 -2.105,-0.925 -0.474,-0.62 -0.713,-1.521 -0.713,-2.701 -10e-4,-1.192 0.234,-2.088 0.709,-2.693 m 16.843,7.324 v -6.033 c 0,-1.179 -0.282,-2.039 -0.85,-2.574 -0.567,-0.538 -1.414,-0.806 -2.539,-0.806 -0.642,0 -1.223,0.124 -1.745,0.375 -0.521,0.251 -0.927,0.602 -1.216,1.059 h -0.07 l -0.229,-1.266 h -1.146 v 9.245 h 1.412 v -4.85 c 0,-1.205 0.226,-2.067 0.682,-2.59 0.452,-0.522 1.171,-0.785 2.146,-0.785 0.735,0 1.28,0.187 1.626,0.559 0.345,0.372 0.519,0.934 0.519,1.686 v 5.98 z"
       clip-path="url(#SVGID_4_)"
       transform="matrix(0.0765296,0,0,0.0765296,81.226293,283.48168)" />
    <g
       transform="matrix(0.26458333,0,0,0.26458333,6.4010917,180.82917)"
       id="layer1-5"
       inkscape:label="Calque 1">
      <g
         transform="matrix(0.53924176,0,0,0.53924176,3.9999994,310.5788)"
         id="g871">
        <path
           style="fill:#000000;fill-rule:nonzero;stroke:none;stroke-width:1;stroke-miterlimit:4"
           d="M 172.98985,62.796291 V 15.676662 c 0,-6.1647944 -4.07778,-11.5863098 -10.02209,-13.3495745 -3.32268,-0.9852335 -6.7725,-1.48548862 -10.23995,-1.48548862 H 89.921443 C 75.701487,-26.352631 56.709152,-50.821441 33.849287,-71.392655 25.556347,-78.85859 12.761145,-78.231142 5.2487189,-69.986394 1.8741032,-66.284701 2.0796326e-8,-61.456711 2.0796326e-8,-56.458565 V 72.085531 H 9.3486573 V -56.458565 c 0,-2.692993 1.0140227,-5.295627 2.8323297,-7.288787 4.044974,-4.43671 10.942747,-4.770242 15.409449,-0.752646 20.818888,18.740701 38.300616,40.827067 51.73454,65.34159688 H 67.005338 c -19.796047,0 -35.829932,15.93771812 -35.829932,35.61206112 0,19.673537 16.033106,35.631871 35.829932,35.631871 19.796822,0 35.849732,-15.957551 35.849732,-35.631871 0,-4.575911 -0.88977,-9.090089 -2.61445,-13.329765 -1.780549,-4.381975 -3.685323,-8.71819 -5.704266,-12.993057 H 128.5837 c -14.63143,13.251512 -15.69176,35.788148 -2.35697,50.328289 6.79249,7.407292 16.41737,11.626404 26.50108,11.626404 h 20.26204 z M 67.005338,10.130838 h 17.172221 c 2.670418,5.397726 5.140826,10.883198 7.407627,16.459197 1.275403,3.135577 1.921231,6.482518 1.921231,9.863625 0,14.54089 -11.867271,26.342631 -26.501079,26.342631 -14.631448,0 -26.481267,-11.801741 -26.481267,-26.342631 0,-14.544833 11.849819,-26.322822 26.481267,-26.322822 z m 88.020022,0.09904 c 1.75366,0.153695 3.51572,0.470735 5.26853,0.990325 1.97961,0.588798 3.34729,2.404651 3.34729,4.456462 v 47.119629 h -10.91337 c -2.56262,0 -5.10889,-0.378044 -7.56608,-1.109164 C 131.14086,57.535047 123.1556,42.8827 127.33589,28.947009 130.99367,16.756698 142.74976,9.1540174 155.02536,10.229878 Z"
           id="path2222"
           sodipodi:nodetypes="ccsccccccccscccssscccccccccssssccscccccc"
           inkscape:connector-curvature="0" />
        <path
           style="fill:#ed1c24;stroke-width:1"
           inkscape:connector-curvature="0"
           id="path15-3"
           d="m 128.05782,-30.761347 h 44.93203 v -45.844347 h -44.93203 z m 8.56264,-27.190704 h 9.71797 v -9.909816 h 8.36867 v 9.907678 h 9.71797 v 8.541334 h -9.71797 v 9.903414 h -8.36867 v -9.903414 h -9.71797 z" />
      </g>
      <g
         transform="matrix(0.53924176,0,0,0.53924176,-9.5270268,291.21504)"
         id="g865">
        <path
           inkscape:connector-curvature="0"
           d="m 156.12894,77.468918 c -1.79025,-6.53e-4 -3.24171,1.45084 -3.24106,3.241089 v 36.294523 c -6.2e-4,1.79027 1.45083,3.24171 3.24106,3.24106 h 36.29453 c 1.79025,6.5e-4 3.24169,-1.45079 3.24106,-3.24106 V 80.710007 c 6.5e-4,-1.790249 -1.4508,-3.241742 -3.24106,-3.241089 z M 143.82765,61.927433 c -3.58049,-0.0014 -6.48338,2.901585 -6.48213,6.482115 v 60.897102 c -0.001,3.58051 2.90164,6.48339 6.48213,6.48211 h 60.89712 c 3.5805,0.001 6.48339,-2.9016 6.48212,-6.48211 V 68.409548 c 0.001,-3.58053 -2.90162,-6.483421 -6.48212,-6.482115 z m 2.7924,6.033434 h 55.31231 c 1.79025,-6.37e-4 3.2417,1.450809 3.24106,3.241057 v 55.312346 c 6.4e-4,1.79022 -1.45081,3.24167 -3.24106,3.24104 h -55.31231 c -1.79025,6.3e-4 -3.2417,-1.45082 -3.24106,-3.24104 V 71.201924 c -6.4e-4,-1.790248 1.45081,-3.241694 3.24106,-3.241057 z M 194.8007,30.4334 a 3.2399081,3.2399081 0 0 0 -3.19419,3.281229 v 20.571357 a 3.24106,3.24106 0 1 0 6.48212,0 V 33.714629 A 3.2399081,3.2399081 0 0 0 194.8007,30.4334 Z m -20.57136,0 a 3.2399081,3.2399081 0 0 0 -3.19418,3.281229 v 20.571357 a 3.241059,3.241059 0 1 0 6.48211,0 V 33.714629 A 3.2399081,3.2399081 0 0 0 174.22934,30.4334 Z m -20.57136,0 a 3.2399081,3.2399081 0 0 0 -3.19418,3.281229 v 20.571357 a 3.241059,3.241059 0 1 0 6.48211,0 V 33.714629 A 3.2399081,3.2399081 0 0 0 153.65798,30.4334 Z m 41.14272,113.14247 a 3.2399081,3.2399081 0 0 0 -3.19419,3.28125 v 20.57136 a 3.24106,3.24106 0 1 0 6.48212,0 v -20.57136 a 3.2399081,3.2399081 0 0 0 -3.28793,-3.28125 z m -20.57136,0 a 3.2399081,3.2399081 0 0 0 -3.19418,3.28125 v 20.57136 a 3.241059,3.241059 0 1 0 6.48211,0 v -20.57136 a 3.2399081,3.2399081 0 0 0 -3.28793,-3.28125 z m -20.57136,0 a 3.2399081,3.2399081 0 0 0 -3.19418,3.28125 v 20.57136 a 3.241059,3.241059 0 1 0 6.48211,0 v -20.57136 a 3.2399081,3.2399081 0 0 0 -3.28793,-3.28125 z m 66.90379,-27.38832 a 3.2410733,3.2410733 0 1 0 0,6.48214 h 20.57136 a 3.2410733,3.2410733 0 1 0 0,-6.48214 z m 0,-20.57136 a 3.241069,3.241069 0 1 0 0,6.48213 h 20.57136 a 3.241069,3.241069 0 1 0 0,-6.48213 z m 0,-20.571358 a 3.2410709,3.2410709 0 1 0 0,6.48213 h 20.57136 a 3.2410709,3.2410709 0 1 0 0,-6.48213 z M 107.41928,116.18755 a 3.2410733,3.2410733 0 1 0 0,6.48214 h 20.57138 a 3.2410733,3.2410733 0 1 0 0,-6.48214 z m 0,-20.57136 a 3.241069,3.241069 0 1 0 0,6.48213 h 20.57138 a 3.241069,3.241069 0 1 0 0,-6.48213 z m 0,-20.571358 a 3.2410709,3.2410709 0 1 0 0,6.48213 h 20.57138 a 3.2410709,3.2410709 0 1 0 0,-6.48213 z"
           style="color:#000000;font-style:normal;font-variant:normal;font-weight:normal;font-stretch:normal;font-size:medium;line-height:normal;font-family:sans-serif;font-variant-ligatures:normal;font-variant-position:normal;font-variant-caps:normal;font-variant-numeric:normal;font-variant-alternates:normal;font-feature-settings:normal;text-indent:0;text-align:start;text-decoration:none;text-decoration-line:none;text-decoration-style:solid;text-decoration-color:#000000;letter-spacing:normal;word-spacing:normal;text-transform:none;writing-mode:lr-tb;direction:ltr;text-orientation:mixed;dominant-baseline:auto;baseline-shift:baseline;text-anchor:start;white-space:normal;shape-padding:0;clip-rule:nonzero;display:inline;overflow:visible;visibility:visible;opacity:1;isolation:auto;mix-blend-mode:normal;color-interpolation:sRGB;color-interpolation-filters:linearRGB;solid-color:#000000;solid-opacity:1;vector-effect:none;fill:#ffffff;fill-opacity:1;fill-rule:evenodd;stroke:#ffffff;stroke-width:6.47916889;stroke-linecap:round;stroke-linejoin:round;stroke-miterlimit:4;stroke-dasharray:none;stroke-dashoffset:0;stroke-opacity:1;marker:none;color-rendering:auto;image-rendering:auto;shape-rendering:auto;text-rendering:auto;enable-background:accumulate"
           id="path861" />
        <path
           id="rect902"
           style="color:#000000;font-style:normal;font-variant:normal;font-weight:normal;font-stretch:normal;font-size:medium;line-height:normal;font-family:sans-serif;font-variant-ligatures:normal;font-variant-position:normal;font-variant-caps:normal;font-variant-numeric:normal;font-variant-alternates:normal;font-feature-settings:normal;text-indent:0;text-align:start;text-decoration:none;text-decoration-line:none;text-decoration-style:solid;text-decoration-color:#000000;letter-spacing:normal;word-spacing:normal;text-transform:none;writing-mode:lr-tb;direction:ltr;text-orientation:mixed;dominant-baseline:auto;baseline-shift:baseline;text-anchor:start;white-space:normal;shape-padding:0;clip-rule:nonzero;display:inline;overflow:visible;visibility:visible;opacity:1;isolation:auto;mix-blend-mode:normal;color-interpolation:sRGB;color-interpolation-filters:linearRGB;solid-color:#000000;solid-opacity:1;vector-effect:none;fill:#4d4d4d;fill-opacity:1;fill-rule:evenodd;stroke:none;stroke-width:6.47916889;stroke-linecap:round;stroke-linejoin:round;stroke-miterlimit:4;stroke-dasharray:none;stroke-dashoffset:0;stroke-opacity:1;marker:none;color-rendering:auto;image-rendering:auto;shape-rendering:auto;text-rendering:auto;enable-background:accumulate"
           d="m 156.12894,77.468918 c -1.79025,-6.53e-4 -3.24171,1.45084 -3.24106,3.241089 v 36.294523 c -6.2e-4,1.79027 1.45083,3.24171 3.24106,3.24106 h 36.29453 c 1.79025,6.5e-4 3.24169,-1.45079 3.24106,-3.24106 V 80.710007 c 6.5e-4,-1.790249 -1.4508,-3.241742 -3.24106,-3.241089 z M 143.82765,61.927433 c -3.58049,-0.0014 -6.48338,2.901585 -6.48213,6.482115 v 60.897102 c -0.001,3.58051 2.90164,6.48339 6.48213,6.48211 h 60.89712 c 3.5805,0.001 6.48339,-2.9016 6.48212,-6.48211 V 68.409548 c 0.001,-3.58053 -2.90162,-6.483421 -6.48212,-6.482115 z m 2.7924,6.033434 h 55.31231 c 1.79025,-6.37e-4 3.2417,1.450809 3.24106,3.241057 v 55.312346 c 6.4e-4,1.79022 -1.45081,3.24167 -3.24106,3.24104 h -55.31231 c -1.79025,6.3e-4 -3.2417,-1.45082 -3.24106,-3.24104 V 71.201924 c -6.4e-4,-1.790248 1.45081,-3.241694 3.24106,-3.241057 z M 194.8007,30.4334 a 3.2399081,3.2399081 0 0 0 -3.19419,3.281229 v 20.571357 a 3.24106,3.24106 0 1 0 6.48212,0 V 33.714629 A 3.2399081,3.2399081 0 0 0 194.8007,30.4334 Z m -20.57136,0 a 3.2399081,3.2399081 0 0 0 -3.19418,3.281229 v 20.571357 a 3.241059,3.241059 0 1 0 6.48211,0 V 33.714629 A 3.2399081,3.2399081 0 0 0 174.22934,30.4334 Z m -20.57136,0 a 3.2399081,3.2399081 0 0 0 -3.19418,3.281229 v 20.571357 a 3.241059,3.241059 0 1 0 6.48211,0 V 33.714629 A 3.2399081,3.2399081 0 0 0 153.65798,30.4334 Z m 41.14272,113.14247 a 3.2399081,3.2399081 0 0 0 -3.19419,3.28125 v 20.57136 a 3.24106,3.24106 0 1 0 6.48212,0 v -20.57136 a 3.2399081,3.2399081 0 0 0 -3.28793,-3.28125 z m -20.57136,0 a 3.2399081,3.2399081 0 0 0 -3.19418,3.28125 v 20.57136 a 3.241059,3.241059 0 1 0 6.48211,0 v -20.57136 a 3.2399081,3.2399081 0 0 0 -3.28793,-3.28125 z m -20.57136,0 a 3.2399081,3.2399081 0 0 0 -3.19418,3.28125 v 20.57136 a 3.241059,3.241059 0 1 0 6.48211,0 v -20.57136 a 3.2399081,3.2399081 0 0 0 -3.28793,-3.28125 z m 66.90379,-27.38832 a 3.2410733,3.2410733 0 1 0 0,6.48214 h 20.57136 a 3.2410733,3.2410733 0 1 0 0,-6.48214 z m 0,-20.57136 a 3.241069,3.241069 0 1 0 0,6.48213 h 20.57136 a 3.241069,3.241069 0 1 0 0,-6.48213 z m 0,-20.571358 a 3.2410709,3.2410709 0 1 0 0,6.48213 h 20.57136 a 3.2410709,3.2410709 0 1 0 0,-6.48213 z M 107.41928,116.18755 a 3.2410733,3.2410733 0 1 0 0,6.48214 h 20.57138 a 3.2410733,3.2410733 0 1 0 0,-6.48214 z m 0,-20.57136 a 3.241069,3.241069 0 1 0 0,6.48213 h 20.57138 a 3.241069,3.241069 0 1 0 0,-6.48213 z m 0,-20.571358 a 3.2410709,3.2410709 0 1 0 0,6.48213 h 20.57138 a 3.2410709,3.2410709 0 1 0 0,-6.48213 z"
           inkscape:connector-curvature="0" />
      </g>
    </g>
  </g>
</svg>
