<?xml version="1.0" encoding="UTF-8" standalone="no"?>
<svg
   xmlns:dc="http://purl.org/dc/elements/1.1/"
   xmlns:cc="http://creativecommons.org/ns#"
   xmlns:rdf="http://www.w3.org/1999/02/22-rdf-syntax-ns#"
   xmlns:svg="http://www.w3.org/2000/svg"
   xmlns="http://www.w3.org/2000/svg"
   xmlns:sodipodi="http://sodipodi.sourceforge.net/DTD/sodipodi-0.dtd"
   xmlns:inkscape="http://www.inkscape.org/namespaces/inkscape"
   version="1.1"
   width="64"
   height="64"
   viewBox="0 0 64 64"
   id="svg4"
   sodipodi:docname="nok.svg"
   inkscape:version="1.0.2 (e86c870879, 2021-01-15)"
   inkscape:export-filename="/home/fv/eclipse-workspace/PyDapi2/docs/source/_static/img/nok.png"
   inkscape:export-xdpi="96"
   inkscape:export-ydpi="96">
  <metadata
     id="metadata10">
    <rdf:RDF>
      <cc:Work
         rdf:about="">
        <dc:format>image/svg+xml</dc:format>
        <dc:type
           rdf:resource="http://purl.org/dc/dcmitype/StillImage" />
        <dc:title />
      </cc:Work>
    </rdf:RDF>
  </metadata>
  <defs
     id="defs8" />
  <sodipodi:namedview
     pagecolor="#ffffff"
     bordercolor="#666666"
     borderopacity="1"
     objecttolerance="10"
     gridtolerance="10"
     guidetolerance="10"
     inkscape:pageopacity="0"
     inkscape:pageshadow="2"
     inkscape:window-width="1848"
     inkscape:window-height="1136"
     id="namedview6"
     showgrid="false"
     inkscape:zoom="9.2531279"
     inkscape:cx="27.507177"
     inkscape:cy="32.062577"
     inkscape:window-x="1992"
     inkscape:window-y="27"
     inkscape:window-maximized="1"
     inkscape:current-layer="svg4"
     showguides="false"
     inkscape:document-rotation="0" />
  <path
     inkscape:connector-curvature="0"
     id="path822"
     d="M 50.136834,6.304696 32.780929,23.646741 15.422311,6.2881225 8.4828422,13.227592 25.831793,30.590402 8.4662206,47.942115 15.421234,54.897128 32.777139,37.541223 50.119185,54.897129 57.075251,47.941063 39.7263,30.592111 57.075275,13.243137 Z"
     style="fill:#ffffff;stroke-width:3.27798438"
     sodipodi:nodetypes="ccccccccccccc" />
  <path
     style="fill:#d40000;stroke-width:3.27798438"
     d="M 50.136321,8.622597 C 44.350537,14.402866 38.566412,20.184586 32.780416,25.964643 L 15.421798,8.6060242 10.800744,13.227077 C 16.583315,19.015163 22.367337,24.80159 28.149695,30.589888 22.36076,36.373449 16.570867,42.155847 10.784123,47.941601 l 4.637626,4.637625 17.355904,-17.355905 c 5.78034,5.785714 11.559515,11.572384 17.342047,17.355906 L 54.75735,47.941577 37.408399,30.592625 54.757374,13.24365 Z"
     id="path2"
     inkscape:connector-curvature="0" />
</svg>
